<?xml version="1.0" encoding="utf-8"?>
<!-- Generator: Adobe Illustrator 27.5.0, SVG Export Plug-In . SVG Version: 6.00 Build 0)  -->
<svg version="1.1" xmlns="http://www.w3.org/2000/svg" xmlns:xlink="http://www.w3.org/1999/xlink" x="0px" y="0px"
	 viewBox="0 0 500 500" style="enable-background:new 0 0 500 500;" xml:space="preserve">
<g id="BACKGROUND">
	<rect style="fill:#FFFFFF;" width="500" height="500"/>
</g>
<g id="OBJECTS">
	<g>
		<g>
			<g>
				<path style="fill:#A85858;" d="M97.103,431.923c0.602,1.894-2.11,4.756-3.607,5.947c-4.334,3.449-10.632,3.924-14.932,7.207
					c4.784,2.627,12.779,2.779,18.035,2.194c1.71-0.19,10.706-1.3,11.593-3.626c1.016-2.666-3.129-8.871-4.207-10.822
					C101.879,429.015,101.767,430.115,97.103,431.923z"/>
				<path style="fill:#FFC3AB;" d="M118.817,295.395c-4.405,0-8.241,44.765-10.466,56.621c0,0,1.763,20.042-3.764,81.841
					c-0.279,3.122-8.345,1.074-8.345,1.074s-11.642-64.418-13.65-80.348c-3.141-24.915-8.441-66.29,0.26-94.324
					c2.621-2.208,19.497-3.313,36.372-3.313"/>
			</g>
			<g>
				<path style="fill:#A85858;" d="M140.98,431.86c-0.602,1.893,2.11,4.756,3.607,5.947c4.334,3.449,10.632,3.924,14.932,7.207
					c-4.784,2.627-12.779,2.779-18.035,2.194c-1.71-0.19-10.706-1.3-11.593-3.626c-1.016-2.666,3.129-8.871,4.207-10.822
					C136.203,428.952,136.315,430.051,140.98,431.86z"/>
				<path style="fill:#FFC3AB;" d="M120.378,298.192c4.405,0,7.088,41.969,9.313,53.825c0,0-1.763,20.042,3.764,81.841
					c0.279,3.122,8.345,1.074,8.345,1.074s11.642-64.418,13.65-80.348c3.141-24.915,8.441-66.29-0.261-94.324
					c-2.621-2.208-19.497-3.313-36.372-3.313"/>
			</g>
			<g>
				<path style="fill:#A85858;" d="M82.852,260.26c5.243-4.417,67.502-4.417,72.745,0c8.701,28.035,6.431,45.705,3.05,61.433
					c-2.161,10.056-27.525,3.865-33.209-2.212c-5.368-5.739-1.809-19.135-6.213-19.135s-0.845,13.396-6.213,19.135
					c-5.684,6.077-31.048,12.268-33.209,2.212C76.421,305.965,74.151,288.295,82.852,260.26z"/>
			</g>
			<g>
				<g>
					<path d="M123.783,270.477c-0.261,4.904,0.06,9.762-0.974,14.596c-0.046,0.215-0.252,0.322-0.45,0.342
						c-2.081,0.216-4.17,0.402-6.263,0.436c-0.27,0.004-0.477-0.227-0.487-0.487c-0.223-5.993-0.245-11.994-0.448-17.981
						c-0.014-0.421,0.639-0.42,0.653,0c0.165,4.87,0.517,9.74,0.666,14.617c0.021,0.694-0.237,2.169,0.086,2.808
						c0.515,1.02-0.626-0.242,0.285,0.061c0.704,0.235,1.992-0.096,2.701-0.147c0.522-0.038,1.765,0.096,2.253-0.188
						c0.904-0.524,0.73-3.404,0.879-4.761c0.339-3.097,0.527-6.208,0.936-9.298C123.633,270.377,123.789,270.37,123.783,270.477
						L123.783,270.477z"/>
				</g>
				<g>
					<path d="M94.947,268.165c-2.176,6.168-6.247,13.023-12.156,16.273c-0.397,0.218-0.841-0.314-0.495-0.641
						c5.099-4.827,9.557-9.048,12.258-15.74C94.65,267.819,95.037,267.913,94.947,268.165L94.947,268.165z"/>
				</g>
				<g>
					<path d="M143.175,268.056c2.698,6.687,7.16,10.914,12.258,15.74c0.343,0.325-0.094,0.862-0.495,0.641
						c-5.909-3.251-9.98-10.105-12.156-16.273C142.692,267.913,143.079,267.818,143.175,268.056L143.175,268.056z"/>
				</g>
				<g>
					<path d="M121.646,285.401c0.065,4.847-0.187,10.39-1.99,14.947c-0.136,0.344-0.609,0.213-0.551-0.152
						c0.793-4.989,1.899-9.691,1.888-14.795C120.992,284.98,121.641,284.98,121.646,285.401L121.646,285.401z"/>
				</g>
				<g>
					<path d="M111.577,256.671c0.096,2.479-0.739,7.767,1.045,9.859c1.83,2.146,7.584,1.358,9.934,1.379
						c11.645,0.104,23.226-1.432,34.743,1.028c0.353,0.075,0.504-0.466,0.149-0.542c-7.872-1.698-15.802-1.617-23.812-1.355
						c-4.305,0.141-8.614,0.329-12.922,0.204c-2.611-0.076-6.425,0.204-8.023-2.515c-1.135-1.932-0.878-5.925-1.014-8.058
						C111.673,256.608,111.574,256.607,111.577,256.671L111.577,256.671z"/>
				</g>
				<g>
					<path d="M80.651,268.637c10.952-1.749,21.932-2.189,32.987-1.33c0.36,0.028,0.36-0.538,0-0.563
						c-11.086-0.767-22.106-0.224-33.062,1.621C80.397,268.395,80.474,268.665,80.651,268.637L80.651,268.637z"/>
				</g>
				<g>
					<path d="M117.054,263.16c0.284,0.011,0.549-0.048,0.795-0.178c0.256-0.083,0.477-0.225,0.664-0.426
						c0.201-0.187,0.343-0.408,0.427-0.664c0.129-0.246,0.188-0.511,0.178-0.795c-0.024-0.183-0.049-0.366-0.074-0.548
						c-0.098-0.349-0.275-0.653-0.531-0.91c-0.139-0.108-0.278-0.215-0.417-0.323c-0.322-0.186-0.669-0.28-1.041-0.281
						c-0.284-0.011-0.549,0.048-0.795,0.178c-0.256,0.083-0.477,0.225-0.664,0.426c-0.201,0.187-0.343,0.408-0.426,0.664
						c-0.129,0.246-0.188,0.511-0.178,0.795c0.025,0.183,0.049,0.366,0.074,0.548c0.098,0.349,0.275,0.653,0.53,0.91
						c0.139,0.108,0.278,0.215,0.417,0.323C116.334,263.065,116.681,263.159,117.054,263.16L117.054,263.16z"/>
				</g>
			</g>
		</g>
		<path style="fill:#CF6730;" d="M152.884,159.822c0.396-2.314,1.828-4.31,2.572-6.536c1.206-3.605,0.447-7.804-1.945-10.758
			c-0.739-0.913-1.634-1.734-2.095-2.814c-0.889-2.08,0.057-4.435,0.855-6.551c1.216-3.223,2.11-6.638,1.915-10.077
			c-0.194-3.439-1.594-6.923-4.293-9.064c-1.528-1.212-3.381-1.941-4.993-3.039c-1.938-1.32-3.505-3.177-4.481-5.309
			c-1.068-2.334-1.464-5.022-3.066-7.028c-1.647-2.061-4.313-3.045-6.921-3.438c-3.391-0.511-7.537-0.177-10.458,1.8
			c-0.375,0.254-0.664,0.522-0.897,0.801c-0.233-0.279-0.522-0.547-0.897-0.801c-2.921-1.978-7.068-2.312-10.458-1.8
			c-2.608,0.393-5.274,1.378-6.921,3.438c-1.603,2.006-1.998,4.693-3.066,7.028c-0.975,2.132-2.543,3.989-4.481,5.309
			c-1.612,1.098-3.465,1.826-4.993,3.039c-2.698,2.141-4.098,5.624-4.293,9.064c-0.195,3.439,0.699,6.855,1.915,10.077
			c0.798,2.116,1.744,4.471,0.855,6.551c-0.461,1.08-1.356,1.901-2.095,2.814c-2.392,2.955-3.151,7.153-1.945,10.758
			c0.745,2.226,2.177,4.222,2.572,6.536c0.865,5.061-3.405,9.739-3.317,14.872c0.023,1.359,0.392,2.768,1.325,3.757
			c0.525,0.556,1.199,0.95,1.898,1.259c2.652,1.175,54.782,0.762,59.249,1.029c2.895,0.173,5.903,0.146,8.555-1.029
			c0.699-0.31,1.373-0.704,1.898-1.259c0.933-0.988,1.301-2.398,1.325-3.757C156.289,169.561,152.019,164.883,152.884,159.822z"/>
		<g>
			<g>
				<g>
					<path style="fill:#FFC3AB;" d="M130.555,184.18c4.921,0.98,22.654,20.469,46.499,22.21c23.071,1.684,54.517-1.525,51.743-2.684
						c0,0,1.492-8.118-5.731-8.905c0,0-18.09-0.11-38.905-1.022c-11.985-0.525-34.22-28.914-37.856-24.335
						C146.305,169.443,123.881,182.851,130.555,184.18z"/>
				</g>
				<path style="fill:#FFC3AB;" d="M242.956,187.169c1.359,1.35-4.573,4.801-2.463,5.875c1.678,0.009,14.092-4.622,14.48-2.139
					c0.247,1.584-8.368,3.394-10.07,4.924c4.757,0.676,12.516-0.014,12.553,1.322c0.062,2.174-12.141,1.831-12.055,2.952
					c0.128,1.662,10.74,1.416,10.825,2.911c0.088,1.542-9.07,0.107-12.347,1.254c0.179,1.391,8.751,3.136,8.46,4.825
					c-0.102,0.591-16.14-3.402-20.334-3.929c0,0-15.144,0.027-16.037-0.27c-2.804-0.932-0.965-7.759-0.117-10.255
					c0.458-1.35,12.837,2.601,18.341-2.434C236.097,190.463,241.843,186.064,242.956,187.169z"/>
			</g>
			<path style="fill:#FFC3AB;" d="M106.074,161.998c3.35-4.02,3.453-13.787,3.564-20.92c4.08,0.026,15.095,0.026,19.174,0
				c0.111,7.133,0.214,16.9,3.564,20.92c3.574,4.288,22.715,9.084,22.076,9.687c-4.674,4.305-20.11,26.085-35.227,26.123
				c-5.753,0.015-26.6,14.278-30.786,5.996c-2.718-5.379-4.732-11.211-7.19-13.77c-4.801-4.998,4.72-16.534,2.748-18.35
				C83.359,171.081,102.499,166.286,106.074,161.998z"/>
			<path style="fill:#ECA66D;" d="M156.433,261.889c-1.397-6.903-8.932-24.005-9.839-26.474c-1.758-4.786-0.046-14.289,0.177-15.139
				c2.286-8.721,5.285-15.213,3.055-23.326c-3.245-11.803-3.196-20.936-2.155-28.02c0.269-1.834-5.428-3.45-5.786-1.698
				c-1.012,4.957-2.018,13.383-6.043,17.099c-3.303,3.049-30.224,3.049-33.526,0c-4.025-3.716-5.031-12.142-6.043-17.099
				c-0.358-1.752-6.055-0.136-5.786,1.698c1.04,7.084,1.09,16.217-2.155,28.02c-2.231,8.113,0.768,14.606,3.054,23.326
				c0.223,0.85,1.935,10.353,0.177,15.139c-0.907,2.469-8.443,19.57-9.839,26.474C92.48,262.576,145.673,262.576,156.433,261.889z"
				/>
			<g>
				<path style="fill:#FFC3AB;" d="M79.766,251.04c-8.123-6.915-14.468-22.831-14.046-23.976
					c2.171-5.894,17.148-28.006,21.344-43.96c1.906-7.246,0.992-10.997,0.479-12.56c0,0-8.171,1.391-12.952,6.232
					c-3.373,3.416-16.131,33.986-22.13,46.499c-5.496,11.465,19.942,31.728,19.942,31.728
					C75.585,257.786,82.869,253.682,79.766,251.04z"/>
				<path style="fill:#FFC3AB;" d="M96.22,252.443c0.749,0.053,1.504,0.111,2.224,0.323c0.784,0.231,1.503,0.638,2.207,1.052
					c1.542,0.908,3.115,1.934,3.987,3.497c-1.2,0.457-2.558,0.34-3.775-0.066c-1.218-0.407-2.324-1.084-3.418-1.757
					c2.692,1.606,5.122,3.648,7.169,6.022c-0.847,0.509-1.92,0.519-2.872,0.252c-0.951-0.268-1.81-0.786-2.656-1.295
					c-2.648-1.593-5.441-3.2-8.525-3.401c3.496,2.811,6.849,5.8,10.042,8.951c-1.373,0.708-3.083,0.346-4.421-0.427
					c-1.338-0.773-2.422-1.908-3.633-2.867c-1.241-0.984-2.624-1.788-4.093-2.38c1.004,3.351,5.053,4.959,6.365,8.202
					c-2.127,0.317-4.227-0.821-5.791-2.296c-1.564-1.476-2.761-3.299-4.27-4.83c-0.13-0.132-0.268-0.265-0.44-0.332
					c-0.234-0.091-0.496-0.048-0.744-0.012c-1.993,0.29-4.061,0.055-5.939-0.675c-0.935-0.364-1.854-0.875-2.44-1.69
					c-0.476-0.662-0.698-1.478-1.155-2.154c-0.424-0.626-1.03-1.103-1.637-1.555c-1.162-0.865,4.227-6.184,4.418-6.079
					c1.296,0.718,2.34,1.786,3.574,2.535c1.195,0.725,3.213,0.369,4.576,0.411C88.725,251.986,92.475,252.177,96.22,252.443z"/>
			</g>
		</g>
		<g>
			<g>
				<path style="fill:#FFC3AB;" d="M140.796,125.828c0,13.43-3.453,21.308-21.572,21.308c-18.118,0-21.571-7.878-21.571-21.308
					C97.653,98.013,140.796,94.438,140.796,125.828z"/>
				<g>
					<path style="fill:#312A3C;" d="M130.088,145.863c-6.431,3.031-13.918,2.854-20.636,0.887c-0.504-0.148-0.287-0.943,0.217-0.788
						c6.969,2.142,13.422,1.57,20.387-0.174C130.099,145.778,130.131,145.843,130.088,145.863L130.088,145.863z"/>
				</g>
			</g>
			<g>
				<path style="fill:#312A3C;" d="M125.062,125.799c0,1.166,0.567,2.112,1.267,2.112c0.7,0,1.267-0.945,1.267-2.112
					c0-1.166-0.567-2.112-1.267-2.112C125.629,123.687,125.062,124.633,125.062,125.799z"/>
				<path style="fill:#312A3C;" d="M111.346,125.799c0,1.166,0.567,2.112,1.267,2.112c0.7,0,1.267-0.945,1.267-2.112
					c0-1.166-0.567-2.112-1.267-2.112C111.913,123.687,111.346,124.633,111.346,125.799z"/>
				<g>
					<path style="fill:#312A3C;" d="M114.145,120.505c-0.724-0.286-1.481-0.39-2.251-0.24c-0.673,0.131-1.171,0.548-1.8,0.748
						c-0.228,0.072-0.466-0.214-0.323-0.42c0.935-1.343,3.287-1.184,4.594-0.61C114.659,120.111,114.447,120.624,114.145,120.505
						L114.145,120.505z"/>
				</g>
				<g>
					<path style="fill:#312A3C;" d="M124.083,119.982c1.306-0.574,3.658-0.732,4.594,0.61c0.143,0.205-0.094,0.493-0.323,0.42
						c-0.629-0.2-1.127-0.617-1.8-0.748c-0.77-0.15-1.527-0.046-2.251,0.24C124.005,120.623,123.787,120.112,124.083,119.982
						L124.083,119.982z"/>
				</g>
				<g>
					<path style="fill:#312A3C;" d="M122.344,135.329c-1.307,1.574-4.635,1.948-5.466-0.368c-0.104-0.288,0.282-0.452,0.478-0.278
						c0.671,0.595,1.092,1.223,2.029,1.417c1.045,0.217,2.056-0.202,2.786-0.945C122.283,135.042,122.443,135.21,122.344,135.329
						L122.344,135.329z"/>
				</g>
				<g>
					<path style="fill:#312A3C;" d="M119.234,121.817c0.032,1.567,0.235,3.166,0.634,4.686c0.225,0.859,0.532,1.712,0.915,2.512
						c0.166,0.347,0.764,1.107,0.803,1.518c0.11,1.14-1.311,1.471-2.216,1.806c-0.108,0.04-0.182-0.135-0.079-0.187
						c0.373-0.185,0.9-0.369,1.198-0.669c0.913-0.918,0.46-1.149,0.061-1.937c-0.369-0.729-0.682-1.487-0.926-2.267
						c-0.569-1.818-0.661-3.574-0.431-5.463C119.197,121.792,119.234,121.79,119.234,121.817L119.234,121.817z"/>
				</g>
				<g>
					<path style="fill:#FF948C;" d="M137.035,136.151c0.245,4.505-3.279,8.359-7.87,8.609s-8.513-3.199-8.759-7.704
						c-0.017-0.318-1.2-0.634-1.181-0.945c0.02-0.313,1.242-0.622,1.297-0.925c0.661-3.656,3.815-6.525,7.755-6.739
						C132.868,128.197,136.789,131.646,137.035,136.151z"/>
					<path style="opacity:0.46;fill:#FFFFFF;" d="M133.17,132.326c-0.289,0.944-1.353,0.367-2.752-0.062
						c-1.399-0.428-2.604-0.546-2.315-1.49c0.289-0.944,1.658-1.363,3.057-0.934C132.559,130.269,133.459,131.382,133.17,132.326z"
						/>
					<path style="opacity:0.46;fill:#FFFFFF;" d="M135.786,134.929c0,0.575-0.466,1.041-1.041,1.041
						c-0.575,0-1.041-0.466-1.041-1.041c0-0.575,0.466-1.041,1.041-1.041C135.32,133.888,135.786,134.354,135.786,134.929z"/>
				</g>
			</g>
			<g>
				<path style="fill:#CF6730;" d="M130.425,102.407c5.415,2.792,9.839,7.992,10.51,14.047c0.082,0.743,0.094,1.549-0.321,2.171
					c-0.859,1.286-2.796,0.961-4.288,0.554c-4.587-1.249-9.351-1.847-14.104-1.77c-2.613,0.042-5.36,0.261-7.707-0.888
					c-2.656-1.299-4.269-4.164-4.8-7.073c-0.531-2.909-1.886-6.814,0.281-8.825C113.754,97.136,125.011,99.615,130.425,102.407z"/>
				<path style="fill:#CF6730;" d="M110.637,103.066c1.93,2.28,2.07,5.666,1.114,8.497c-0.955,2.83-2.84,5.236-4.69,7.581
					c-1.85,2.345-3.734,4.752-4.688,7.583c-1.949-1.186-3.716-2.672-5.218-4.39c-1.2-1.372-2.258-2.959-2.537-4.76
					c-0.452-2.92,1.22-5.756,3.198-7.952c2.604-2.891,5.63-5.981,9.459-6.673C108.102,102.803,110.637,103.066,110.637,103.066z"/>
				<path style="fill:#CF6730;" d="M134.322,112.98c1.872,4.471,3.085,9.216,3.588,14.037c3.382-1.164,5.458-4.874,5.438-8.451
					c-0.019-3.577-3.35-7.445-5.714-10.129"/>
			</g>
			<g>
				<g>
					<path style="fill:#FFC3AB;" d="M98.207,119.792c-2.131-0.686-4.094,0.711-4.61,2.706c-1.284,4.967,3.425,8.611,6.793,11.295
						C100.946,131.72,101.475,120.844,98.207,119.792z"/>
					<g>
						<g>
							<path style="fill:#312A3C;" d="M99.085,127.758c-0.25-1.209-0.549-2.462-1.272-3.488c-0.761-1.079-1.758-1.366-2.934-1.789
								c-0.22-0.079-0.245-0.403,0-0.473c1.171-0.333,2.317,0.495,3.032,1.377c0.982,1.213,1.285,2.779,1.49,4.286
								C99.428,127.873,99.129,127.969,99.085,127.758L99.085,127.758z"/>
						</g>
						<g>
							<path style="fill:#312A3C;" d="M97.401,123.978c-0.481,0.245-0.861,0.639-1.055,1.148c-0.08,0.208-0.127,0.429-0.136,0.652
								c-0.01,0.242,0.04,0.385-0.086,0.6c-0.076,0.13-0.278,0.168-0.385,0.05c-0.374-0.416-0.058-1.199,0.19-1.624
								c0.307-0.528,0.778-0.911,1.347-1.124C97.448,123.614,97.565,123.894,97.401,123.978L97.401,123.978z"/>
						</g>
					</g>
				</g>
				<g>
					<path style="fill:#FFC3AB;" d="M140.242,119.792c2.131-0.686,4.094,0.711,4.61,2.706c1.284,4.967-3.424,8.611-6.793,11.295
						C137.502,131.72,136.974,120.844,140.242,119.792z"/>
					<g>
						<g>
							<path style="fill:#312A3C;" d="M139.048,127.671c0.204-1.504,0.506-3.076,1.49-4.286c0.717-0.881,1.859-1.71,3.032-1.377
								c0.244,0.07,0.221,0.393,0,0.473c-1.186,0.427-2.165,0.699-2.934,1.789c-0.723,1.025-1.022,2.279-1.272,3.488
								C139.32,127.969,139.021,127.873,139.048,127.671L139.048,127.671z"/>
						</g>
						<g>
							<path style="fill:#312A3C;" d="M141.174,123.679c0.57,0.213,1.039,0.596,1.347,1.124c0.249,0.428,0.565,1.207,0.19,1.624
								c-0.107,0.118-0.308,0.081-0.385-0.05c-0.113-0.192-0.083-0.312-0.084-0.532c-0.002-0.246-0.05-0.49-0.138-0.72
								c-0.195-0.51-0.574-0.903-1.055-1.148C140.886,123.895,140.999,123.613,141.174,123.679L141.174,123.679z"/>
						</g>
					</g>
				</g>
			</g>
		</g>
	</g>
	<g>
		<g>
			<path style="fill:#312A3C;" d="M287.042,428.929c0.673,2.116-2.357,5.314-4.03,6.644c-4.842,3.853-11.878,4.384-16.683,8.051
				c5.344,2.935,14.277,3.105,20.149,2.452c1.911-0.213,11.961-1.453,12.952-4.051c1.135-2.978-3.496-9.911-4.701-12.09
				C292.378,425.68,292.253,426.909,287.042,428.929z"/>
			<path style="fill:#312A3C;" d="M337.689,428.929c-0.673,2.116,2.357,5.314,4.029,6.644c4.842,3.853,11.878,4.384,16.683,8.051
				c-5.344,2.935-14.277,3.105-20.149,2.452c-1.911-0.213-11.961-1.453-12.952-4.051c-1.135-2.978,3.496-9.911,4.701-12.09
				C332.352,425.68,332.477,426.909,337.689,428.929z"/>
			<g>
				<path style="fill:#ECA66D;" d="M353.61,237.145c-5.857-4.935-75.414-4.935-81.271,0c-9.721,31.321-3.801,77.545-0.291,105.381
					c2.244,17.797,8.273,35.775,11.773,91.528c0,0,15.42,5.184,16.118,1.753c14.159-69.579,6.585-97.194,6.585-97.194
					c2.486-13.246,1.529-56.681,6.45-56.681c4.921,0,3.965,43.435,6.45,56.681c0,0-7.574,27.615,6.585,97.194
					c0.698,3.432,16.118-1.753,16.118-1.753c3.5-55.753,9.529-73.731,11.773-91.528C357.41,314.69,363.33,268.465,353.61,237.145z"
					/>
				<g>
					<g>
						<path d="M307.881,248.559c0.291,5.479-0.067,10.906,1.088,16.307c0.051,0.24,0.281,0.36,0.503,0.383
							c2.325,0.242,4.659,0.45,6.998,0.487c0.302,0.005,0.533-0.254,0.544-0.544c0.249-6.695,0.274-13.4,0.501-20.088
							c0.016-0.47-0.714-0.469-0.73,0c-0.184,5.441-0.578,10.881-0.744,16.33c-0.024,0.775,0.265,2.423-0.096,3.137
							c-0.576,1.139,0.699-0.271-0.318,0.069c-0.787,0.263-2.225-0.107-3.018-0.165c-0.583-0.042-1.972,0.107-2.517-0.21
							c-1.009-0.586-0.816-3.802-0.982-5.318c-0.379-3.461-0.589-6.935-1.046-10.388
							C308.049,248.447,307.875,248.439,307.881,248.559L307.881,248.559z"/>
					</g>
					<g>
						<path d="M340.096,245.976c2.431,6.891,6.98,14.549,13.581,18.181c0.443,0.244,0.94-0.35,0.553-0.717
							c-5.697-5.393-10.678-10.109-13.694-17.585C340.429,245.589,339.997,245.694,340.096,245.976L340.096,245.976z"/>
					</g>
					<g>
						<path d="M286.216,245.855c-3.015,7.471-7.999,12.193-13.694,17.585c-0.383,0.363,0.105,0.963,0.553,0.717
							c6.602-3.632,11.15-11.29,13.581-18.181C286.755,245.695,286.323,245.588,286.216,245.855L286.216,245.855z"/>
					</g>
					<g>
						<path d="M310.268,265.232c-0.072,5.415,0.209,11.607,2.223,16.699c0.152,0.384,0.681,0.238,0.616-0.17
							c-0.886-5.574-2.122-10.827-2.109-16.53C310.999,264.762,310.274,264.762,310.268,265.232L310.268,265.232z"/>
					</g>
				</g>
			</g>
		</g>
		<g>
			<path style="fill:#FFC3AB;" d="M327.666,127.364c-3.743-4.491-3.858-15.403-3.982-23.372c-4.558,0.029-16.864,0.029-21.421,0
				c-0.124,7.969-0.239,18.881-3.982,23.372c-3.993,4.791-25.377,10.148-24.664,10.823c10.539,9.706,68.173,9.706,78.712,0
				C353.043,137.513,331.659,132.155,327.666,127.364z"/>
			<g>
				<rect x="300.913" y="134.446" style="fill:#DDD3C1;" width="25.538" height="12.583"/>
				<g>
					<g>
						<path style="fill:#312A3C;" d="M312.905,134.659c-0.158,3.431-1.108,7.183-0.699,10.6c0.037,0.309,0.442,0.389,0.552,0.075
							c1.158-3.288,0.544-7.292,0.247-10.674C313,134.595,312.908,134.594,312.905,134.659L312.905,134.659z"/>
					</g>
					<g>
						<path style="fill:#312A3C;" d="M314.494,140.421c0.845,0,0.846-1.313,0-1.313C313.65,139.109,313.648,140.421,314.494,140.421
							L314.494,140.421z"/>
					</g>
				</g>
			</g>
			<path style="fill:#312A3C;" d="M353.428,136.86c0.475-4.48-19.193-10.784-24.495-10.506c0,0,2.412,17.524-17.117,17.258
				c-19.038-0.26-14.801-17.258-14.801-17.258c-5.301-0.277-24.969,6.026-24.495,10.506c1.849,17.643-4.191,89.024-3.587,101.75
				c0,13.969,88.082,13.969,88.082,0C357.619,225.883,351.579,154.502,353.428,136.86z"/>
			<g>
				<g>
					<path style="fill:#DDD3C1;" d="M325.794,122.507c0,0-5.968,7.553-11.925,10.943c6.878,8.545,13.636,10.161,13.636,10.161
						l4.596-14.059L325.794,122.507z"/>
					<g>
						<path style="fill:#312A3C;" d="M313.843,134.177c2.058,3.483,5.297,6.771,9.185,8.141c0.252,0.089,0.41-0.301,0.181-0.428
							c-3.688-2.047-6.693-4.295-8.88-7.997C314.144,133.582,313.658,133.864,313.843,134.177L313.843,134.177z"/>
					</g>
				</g>
				<g>
					<path style="fill:#DDD3C1;" d="M300.205,122.507c0,0,5.968,7.553,11.925,10.943c-6.877,8.545-13.636,10.161-13.636,10.161
						l-4.596-14.059L300.205,122.507z"/>
					<g>
						<path style="fill:#312A3C;" d="M310.895,134.907c-1.388,1.611-2.894,3.105-4.554,4.436c-1.561,1.251-3.929,2.157-5.175,3.678
							c-0.153,0.187-0.008,0.43,0.228,0.392c1.831-0.297,3.754-2.241,5.116-3.452c1.678-1.492,3.174-3.154,4.533-4.939
							C311.106,134.936,310.964,134.826,310.895,134.907L310.895,134.907z"/>
					</g>
				</g>
			</g>
			<g>
				<path style="fill:#FFC3AB;" d="M362.149,246.538c1.445,1.275,4.514-4.906,5.731-2.861c0.12,1.683-3.702,14.445-1.186,14.67
					c1.605,0.143,2.851-8.62,4.273-10.43c0.994,4.728,0.816,12.558,2.159,12.507c2.185-0.082,1.032-12.303,2.162-12.291
					c1.676,0.018,2.133,10.682,3.639,10.668c1.553-0.014-0.494-9.107,0.44-12.471c1.408,0.087,3.727,8.572,5.401,8.168
					c0.586-0.142-4.483-15.967-5.29-20.14c0,0-0.977-15.196-1.334-16.073c-1.121-2.752-7.848-0.454-10.297,0.563
					c-1.324,0.549,3.461,12.708-1.226,18.564C364.999,239.439,360.966,245.495,362.149,246.538z"/>
				<g>
					<path style="fill:#312A3C;" d="M350.781,133.45c5.488,3.294,27.431,21.786,30.759,45.594
						c3.219,23.035-0.718,52.304-3.739,52.192c-9.818-0.363-9.116,5.715-10.385-1.48c0,0-0.741-17.209-3.035-38.033
						c-1.321-11.989-32.683-33.448-28.33-37.4C336.05,154.324,344.915,129.929,350.781,133.45z"/>
				</g>
			</g>
			<g>
				<path style="fill:#FFC3AB;" d="M263.896,246.538c-1.445,1.275-4.514-4.906-5.731-2.861c-0.12,1.683,3.702,14.445,1.186,14.67
					c-1.605,0.143-2.851-8.62-4.273-10.43c-0.994,4.728-0.816,12.558-2.159,12.507c-2.185-0.082-1.033-12.303-2.162-12.291
					c-1.676,0.018-2.133,10.682-3.639,10.668c-1.553-0.014,0.494-9.107-0.44-12.471c-1.408,0.087-3.727,8.572-5.402,8.168
					c-0.586-0.142,4.484-15.967,5.29-20.14c0,0,0.977-15.196,1.334-16.073c1.121-2.752,7.848-0.454,10.297,0.563
					c1.324,0.549-3.461,12.708,1.226,18.564C261.046,239.439,265.079,245.495,263.896,246.538z"/>
				<g>
					<path style="fill:#312A3C;" d="M275.263,133.45c-5.488,3.294-27.431,21.786-30.758,45.594
						c-3.22,23.035,0.718,52.304,3.739,52.192c9.818-0.363,9.116,5.715,10.385-1.48c0,0,0.741-17.209,3.035-38.033
						c1.321-11.989,32.683-33.448,28.33-37.4C289.995,154.324,281.129,129.929,275.263,133.45z"/>
				</g>
			</g>
		</g>
		<g>
			<g>
				<path style="fill:#FFC3AB;" d="M291.355,87.315c0,13.43,3.453,21.308,21.572,21.308c18.118,0,21.571-7.878,21.571-21.308
					C334.498,59.5,291.355,55.926,291.355,87.315z"/>
				<g>
					<path style="fill:#312A3C;" d="M302.063,107.351c6.431,3.031,13.917,2.854,20.636,0.886c0.504-0.147,0.287-0.942-0.217-0.788
						c-6.969,2.142-13.422,1.57-20.387-0.174C302.052,107.265,302.02,107.33,302.063,107.351L302.063,107.351z"/>
				</g>
			</g>
			<g>
				<path style="fill:#312A3C;" d="M307.089,87.286c0,1.166-0.567,2.112-1.267,2.112c-0.7,0-1.267-0.945-1.267-2.112
					c0-1.166,0.567-2.112,1.267-2.112C306.522,85.175,307.089,86.12,307.089,87.286z"/>
				<path style="fill:#312A3C;" d="M320.805,87.286c0,1.166-0.567,2.112-1.267,2.112c-0.7,0-1.267-0.945-1.267-2.112
					c0-1.166,0.567-2.112,1.267-2.112C320.238,85.175,320.805,86.12,320.805,87.286z"/>
				<g>
					<path style="fill:#312A3C;" d="M318.006,81.992c0.724-0.286,1.481-0.39,2.251-0.24c0.673,0.131,1.171,0.548,1.8,0.748
						c0.228,0.072,0.466-0.214,0.323-0.42c-0.935-1.343-3.287-1.184-4.594-0.61C317.492,81.598,317.704,82.111,318.006,81.992
						L318.006,81.992z"/>
				</g>
				<g>
					<path style="fill:#312A3C;" d="M308.068,81.47c-1.307-0.574-3.658-0.732-4.594,0.61c-0.143,0.205,0.094,0.493,0.323,0.42
						c0.629-0.2,1.127-0.617,1.8-0.748c0.77-0.15,1.527-0.046,2.251,0.24C308.146,82.11,308.364,81.6,308.068,81.47L308.068,81.47z"
						/>
				</g>
				<g>
					<path style="fill:#312A3C;" d="M309.807,96.817c1.307,1.574,4.635,1.948,5.466-0.368c0.104-0.288-0.281-0.452-0.478-0.278
						c-0.671,0.595-1.092,1.223-2.029,1.417c-1.045,0.216-2.056-0.202-2.786-0.945C309.868,96.529,309.708,96.698,309.807,96.817
						L309.807,96.817z"/>
				</g>
				<g>
					<path style="fill:#312A3C;" d="M312.917,83.305c-0.032,1.567-0.235,3.166-0.634,4.686c-0.225,0.859-0.532,1.712-0.915,2.512
						c-0.166,0.347-0.764,1.107-0.803,1.518c-0.11,1.139,1.311,1.471,2.216,1.806c0.108,0.04,0.182-0.135,0.079-0.187
						c-0.373-0.185-0.9-0.369-1.198-0.669c-0.913-0.918-0.46-1.149-0.061-1.937c0.369-0.729,0.682-1.487,0.926-2.267
						c0.569-1.818,0.661-3.574,0.431-5.463C312.954,83.28,312.917,83.278,312.917,83.305L312.917,83.305z"/>
				</g>
				<g>
					
						<rect x="298.389" y="83.118" style="fill:none;stroke:#312A3C;stroke-width:0.5;stroke-miterlimit:10;" width="12.169" height="8.081"/>
					
						<rect x="315.291" y="83.118" style="fill:none;stroke:#312A3C;stroke-width:0.5;stroke-miterlimit:10;" width="12.17" height="8.081"/>
					
						<line style="fill:none;stroke:#312A3C;stroke-width:0.5;stroke-miterlimit:10;" x1="310.792" y1="85.157" x2="315.291" y2="85.157"/>
					
						<line style="fill:none;stroke:#312A3C;stroke-width:0.5;stroke-miterlimit:10;" x1="327.46" y1="85.157" x2="331.958" y2="85.157"/>
					
						<line style="fill:none;stroke:#312A3C;stroke-width:0.5;stroke-miterlimit:10;" x1="294.03" y1="85.157" x2="298.529" y2="85.157"/>
				</g>
			</g>
			<path style="fill:#CF6730;" d="M287.896,86.548c-2.36-1.984-4.011-4.794-4.596-7.821c-0.211-1.091-0.284-2.24,0.06-3.296
				c0.344-1.057,1.169-2.005,2.251-2.258c0.498-0.116,1.032-0.086,1.504-0.284c0.695-0.291,1.105-1.008,1.397-1.703
				c0.505-1.199,0.825-2.492,1.544-3.577c0.719-1.085,2.001-1.946,3.272-1.666c0.981,0.216,1.699,1.037,2.299,1.842
				c0.777,1.043,1.481,2.141,2.104,3.283c0.29,0.531,0.567,1.087,0.638,1.688c0.088,0.749-0.152,1.493-0.389,2.209
				c-1.108,3.352-2.283,6.818-4.701,9.39c-0.368,0.391-1.033,0.753-1.374,0.338"/>
			<path style="fill:#CF6730;" d="M336.471,86.548c2.36-1.984,4.011-4.794,4.596-7.821c0.211-1.091,0.284-2.24-0.06-3.296
				c-0.344-1.057-1.169-2.005-2.251-2.258c-0.498-0.116-1.032-0.086-1.504-0.284c-0.695-0.291-1.105-1.008-1.397-1.703
				c-0.505-1.199-0.825-2.492-1.544-3.577c-0.719-1.085-2.001-1.946-3.272-1.666c-0.981,0.216-1.699,1.037-2.299,1.842
				c-0.777,1.043-1.481,2.141-2.105,3.283c-0.29,0.531-0.567,1.087-0.638,1.688c-0.088,0.749,0.152,1.493,0.389,2.209
				c1.108,3.352,2.283,6.818,4.701,9.39c0.368,0.391,1.033,0.753,1.374,0.338"/>
			<path style="fill:#CF6730;" d="M301.988,56.158c0.933,0.174,1.772,0.744,2.717,0.815c1.29,0.097,2.444-0.74,3.465-1.535
				c2.424-1.887,5.378-3.892,8.322-3.014c1.652,0.493,2.995,1.85,4.702,2.091c2.388,0.338,4.573-1.603,6.984-1.6
				c2.013,0.002,3.918,1.555,4.326,3.526c0.279,1.347-0.079,2.756,0.134,4.114c0.323,2.059,1.872,3.67,2.936,5.462
				c1.064,1.792,1.534,4.378-0.035,5.75c-0.316,0.276-0.696,0.481-0.974,0.796c-0.846,0.961-0.427,2.442-0.595,3.711
				c-0.284,2.135-2.665,3.731-4.748,3.182c-0.712-2.117-1.696-4.512-3.828-5.177c-2.2-0.687-4.823,0.802-6.796-0.39
				c-0.959-0.58-1.561-1.711-2.629-2.054c-1.537-0.493-2.965,0.869-4.365,1.673c-1.682,0.965-3.787,1.161-5.618,0.522
				c-0.619-0.216-1.226-0.525-1.881-0.532c-1.277-0.014-2.224,1.059-3.453,1.223c-1.436,0.191-2.568-0.535-3.579-1.479
				c-1.532-1.43-2.972-3.497-3.039-5.654C293.912,63.691,296.947,55.217,301.988,56.158z"/>
			<g>
				<g>
					<path style="fill:#FFC3AB;" d="M333.944,81.28c2.131-0.686,4.094,0.711,4.61,2.706c1.284,4.967-3.425,8.611-6.793,11.295
						C331.204,93.208,330.676,82.331,333.944,81.28z"/>
					<g>
						<g>
							<path style="fill:#312A3C;" d="M333.066,89.246c0.25-1.209,0.549-2.462,1.272-3.488c0.761-1.079,1.757-1.366,2.934-1.789
								c0.22-0.079,0.245-0.403,0-0.473c-1.171-0.333-2.317,0.495-3.032,1.377c-0.983,1.213-1.285,2.779-1.49,4.286
								C332.723,89.361,333.022,89.457,333.066,89.246L333.066,89.246z"/>
						</g>
						<g>
							<path style="fill:#312A3C;" d="M334.75,85.465c0.481,0.245,0.861,0.639,1.055,1.148c0.08,0.208,0.127,0.429,0.136,0.652
								c0.01,0.242-0.04,0.384,0.086,0.599c0.076,0.13,0.278,0.168,0.385,0.05c0.374-0.416,0.058-1.199-0.19-1.624
								c-0.307-0.527-0.778-0.911-1.347-1.124C334.703,85.102,334.586,85.381,334.75,85.465L334.75,85.465z"/>
						</g>
					</g>
				</g>
				<g>
					<path style="fill:#FFC3AB;" d="M291.909,81.28c-2.131-0.686-4.094,0.711-4.61,2.706c-1.284,4.967,3.424,8.611,6.793,11.295
						C294.649,93.208,295.177,82.331,291.909,81.28z"/>
					<g>
						<g>
							<path style="fill:#312A3C;" d="M293.102,89.159c-0.204-1.504-0.505-3.076-1.49-4.286c-0.716-0.881-1.859-1.71-3.031-1.377
								c-0.244,0.07-0.221,0.393,0,0.473c1.185,0.427,2.165,0.699,2.934,1.789c0.723,1.025,1.022,2.278,1.272,3.488
								C292.831,89.456,293.13,89.361,293.102,89.159L293.102,89.159z"/>
						</g>
						<g>
							<path style="fill:#312A3C;" d="M290.977,85.166c-0.57,0.214-1.039,0.596-1.347,1.124c-0.249,0.428-0.565,1.207-0.19,1.624
								c0.107,0.118,0.308,0.081,0.385-0.05c0.113-0.192,0.082-0.312,0.084-0.532c0.002-0.245,0.051-0.49,0.138-0.72
								c0.195-0.51,0.574-0.903,1.055-1.148C291.265,85.382,291.152,85.101,290.977,85.166L290.977,85.166z"/>
						</g>
					</g>
				</g>
			</g>
		</g>
	</g>
	<g>
		<g>
			<path style="fill:#DDD3C1;" d="M245.267,431.923c0.602,1.894-2.11,4.756-3.607,5.947c-4.334,3.449-10.632,3.924-14.932,7.207
				c4.784,2.627,12.779,2.779,18.035,2.194c1.71-0.19,10.706-1.3,11.593-3.626c1.016-2.666-3.129-8.871-4.207-10.822
				C250.044,429.015,249.932,430.115,245.267,431.923z"/>
			<path style="fill:#DDD3C1;" d="M290.601,431.923c-0.602,1.894,2.11,4.756,3.607,5.947c4.334,3.449,10.632,3.924,14.932,7.207
				c-4.784,2.627-12.779,2.779-18.035,2.194c-1.71-0.19-10.706-1.3-11.593-3.626c-1.016-2.666,3.129-8.871,4.207-10.822
				C285.824,429.015,285.936,430.115,290.601,431.923z"/>
			<g>
				<path style="fill:#312A3C;" d="M304.851,260.26c-5.243-4.417-67.502-4.417-72.745,0c-8.701,28.035-3.402,69.41-0.261,94.324
					c2.008,15.929,7.405,32.021,10.538,81.925c0,0,13.802,4.641,14.427,1.569c12.674-62.279,5.894-86.997,5.894-86.997
					c2.225-11.856,1.369-50.734,5.774-50.734c4.405,0,3.549,38.878,5.774,50.734c0,0-6.78,24.717,5.894,86.997
					c0.625,3.072,14.427-1.569,14.427-1.569c3.133-49.904,8.53-65.995,10.538-81.925C308.253,329.67,313.552,288.295,304.851,260.26
					z"/>
				<g>
					<g>
						<path d="M263.92,270.477c0.261,4.904-0.06,9.762,0.974,14.596c0.046,0.215,0.252,0.322,0.45,0.342
							c2.081,0.216,4.171,0.402,6.264,0.436c0.27,0.004,0.477-0.227,0.487-0.487c0.223-5.993,0.245-11.994,0.448-17.981
							c0.014-0.421-0.639-0.42-0.653,0c-0.165,4.87-0.517,9.74-0.666,14.617c-0.021,0.694,0.237,2.169-0.086,2.808
							c-0.515,1.02,0.626-0.242-0.285,0.061c-0.704,0.235-1.992-0.096-2.701-0.147c-0.522-0.038-1.765,0.096-2.253-0.188
							c-0.904-0.524-0.73-3.404-0.879-4.761c-0.339-3.097-0.527-6.208-0.936-9.298C264.07,270.377,263.915,270.37,263.92,270.477
							L263.92,270.477z"/>
					</g>
					<g>
						<path d="M292.756,268.165c2.176,6.168,6.247,13.023,12.156,16.273c0.397,0.218,0.841-0.314,0.495-0.641
							c-5.099-4.827-9.557-9.048-12.258-15.74C293.053,267.819,292.667,267.913,292.756,268.165L292.756,268.165z"/>
					</g>
					<g>
						<path d="M244.528,268.056c-2.698,6.687-7.16,10.914-12.258,15.74c-0.343,0.325,0.094,0.862,0.495,0.641
							c5.909-3.251,9.98-10.105,12.156-16.273C245.011,267.913,244.624,267.818,244.528,268.056L244.528,268.056z"/>
					</g>
					<g>
						<path d="M266.057,285.401c-0.065,4.847,0.187,10.39,1.99,14.947c0.136,0.344,0.609,0.213,0.551-0.152
							c-0.793-4.989-1.899-9.691-1.888-14.795C266.711,284.98,266.062,284.98,266.057,285.401L266.057,285.401z"/>
					</g>
				</g>
			</g>
		</g>
		<g>
			<g>
				<path style="fill:#FFC3AB;" d="M193.324,261.223c-1.819,0.601-2.212-6.25-4.124-4.855c-0.767,1.492-2.257,14.658-4.646,13.88
					c-1.524-0.496,0.76-8.998,0.166-11.208c-2.756,3.936-5.652,11.167-6.86,10.596c-1.966-0.929,3.862-11.656,2.824-12.086
					c-1.54-0.638-6.124,8.936-7.495,8.335c-1.415-0.62,4.009-8.136,4.469-11.578c-1.322-0.47-6.757,6.384-8.131,5.36
					c-0.48-0.358,10.338-12.852,12.706-16.353c0,0,6.83-13.517,7.499-14.179c2.101-2.079,7.355,2.651,9.198,4.537
					c0.996,1.02-8.13,10.27-6.131,17.457C193.492,253.616,194.814,260.73,193.324,261.223z"/>
				<g>
					<path style="fill:#ECA66D;" d="M243.303,163.474c-10.067,3.591-29.003,7.968-41.347,28.443
						c-11.943,19.81-19.776,48.118-16.97,49.196c9.121,3.503,6.105,8.788,10.077,2.704c0,0,7.4-15.45,17.634-33.599
						c5.892-10.449,33.459-14.83,43.461-20.562C256.158,189.656,249.712,161.188,243.303,163.474z"/>
				</g>
			</g>
			<g>
				<path style="fill:#FFC3AB;" d="M394.436,189.739c1.359,1.35-4.573,4.802-2.463,5.875c1.678,0.009,14.092-4.622,14.48-2.139
					c0.247,1.584-8.367,3.394-10.07,4.924c4.757,0.676,12.516-0.014,12.553,1.322c0.061,2.174-12.141,1.831-12.055,2.952
					c0.128,1.662,10.74,1.416,10.825,2.911c0.088,1.542-9.07,0.107-12.347,1.254c0.179,1.391,8.751,3.136,8.46,4.825
					c-0.102,0.591-16.14-3.402-20.334-3.929c0,0-15.144,0.027-16.037-0.27c-2.804-0.932-0.965-7.759-0.117-10.255
					c0.458-1.35,12.837,2.601,18.342-2.434C387.578,193.033,393.323,188.634,394.436,189.739z"/>
				<g>
					<path style="fill:#ECA66D;" d="M282.035,186.749c4.921,0.98,22.848,24.918,46.693,26.659
						c23.071,1.684,51.858-4.143,51.549-7.133c-1.004-9.719,5.073-9.422-2.15-10.209c0,0-17.126,0.394-37.942-0.518
						c-11.985-0.525-32.249-25.656-38.829-28.71C301.358,166.838,275.362,185.421,282.035,186.749z"/>
				</g>
			</g>
			<path style="fill:#FFC3AB;" d="M281.63,161.998c-3.35-4.02-3.453-13.787-3.564-20.92c-4.08,0.026-15.095,0.026-19.174,0
				c-0.111,7.133-0.214,16.9-3.564,20.92c-3.574,4.288-22.715,9.084-22.076,9.687c9.434,8.688,61.02,8.688,70.454,0
				C304.344,171.081,285.204,166.286,281.63,161.998z"/>
			<g>
				<path style="fill:#ECA66D;" d="M304.688,170.497c0.425-4.01-17.18-9.652-21.925-9.404c0,10.451-28.569,10.451-28.569,0
					c-4.745-0.248-22.349,5.394-21.925,9.404c1.655,15.792-3.752,79.684-3.211,91.075c0,12.503,78.84,12.503,78.84,0
					C308.44,250.18,303.033,186.289,304.688,170.497z"/>
				<g>
					
						<ellipse transform="matrix(0.9258 -0.378 0.378 0.9258 -59.1733 116.8555)" style="fill:#A85858;" cx="268.066" cy="209.153" rx="20.149" ry="20.149"/>
					<path style="fill:#312A3C;" d="M250.441,223.291c9.286-17.248,27.509-29.357,47.008-31.235
						c-18.001,8.544-33.451,22.381-43.921,39.334c-4.209-2.336-7.392-6.452-8.593-11.113L250.441,223.291z"/>
				</g>
			</g>
		</g>
		<g>
			<g>
				<path style="fill:#FFC3AB;" d="M246.907,125.828c0,13.43,3.453,21.308,21.572,21.308c18.118,0,21.571-7.878,21.571-21.308
					C290.05,98.013,246.907,94.438,246.907,125.828z"/>
				<g>
					<path style="fill:#312A3C;" d="M257.615,145.863c6.431,3.031,13.917,2.854,20.636,0.887c0.504-0.148,0.287-0.943-0.217-0.788
						c-6.969,2.142-13.423,1.57-20.387-0.174C257.604,145.778,257.572,145.843,257.615,145.863L257.615,145.863z"/>
				</g>
			</g>
			<g>
				<ellipse style="fill:#312A3C;" cx="261.375" cy="125.799" rx="1.267" ry="2.112"/>
				<ellipse style="fill:#312A3C;" cx="275.09" cy="125.799" rx="1.267" ry="2.112"/>
				<g>
					<path style="fill:#312A3C;" d="M273.558,120.505c0.724-0.286,1.481-0.39,2.251-0.24c0.673,0.131,1.171,0.548,1.8,0.748
						c0.228,0.072,0.466-0.214,0.323-0.42c-0.935-1.343-3.287-1.184-4.594-0.61C273.044,120.111,273.256,120.624,273.558,120.505
						L273.558,120.505z"/>
				</g>
				<g>
					<path style="fill:#312A3C;" d="M263.62,119.982c-1.306-0.574-3.658-0.732-4.594,0.61c-0.143,0.205,0.094,0.493,0.323,0.42
						c0.629-0.2,1.126-0.617,1.8-0.748c0.77-0.15,1.527-0.046,2.251,0.24C263.698,120.623,263.917,120.112,263.62,119.982
						L263.62,119.982z"/>
				</g>
				<g>
					<path style="fill:#312A3C;" d="M265.359,135.329c1.307,1.574,4.635,1.948,5.466-0.368c0.103-0.288-0.281-0.452-0.478-0.278
						c-0.671,0.595-1.092,1.223-2.03,1.417c-1.045,0.217-2.056-0.202-2.786-0.945C265.42,135.042,265.26,135.21,265.359,135.329
						L265.359,135.329z"/>
				</g>
				<g>
					<path style="fill:#312A3C;" d="M268.469,121.817c-0.031,1.567-0.235,3.166-0.634,4.686c-0.225,0.859-0.532,1.712-0.915,2.512
						c-0.166,0.347-0.763,1.107-0.803,1.518c-0.11,1.14,1.311,1.471,2.216,1.806c0.108,0.04,0.182-0.135,0.079-0.187
						c-0.373-0.185-0.9-0.369-1.198-0.669c-0.913-0.918-0.46-1.149-0.061-1.937c0.369-0.729,0.682-1.487,0.926-2.267
						c0.569-1.818,0.661-3.574,0.431-5.463C268.506,121.792,268.469,121.79,268.469,121.817L268.469,121.817z"/>
				</g>
			</g>
			<g>
				<g>
					<path style="fill:#FFC3AB;" d="M289.496,119.792c2.131-0.686,4.094,0.711,4.61,2.706c1.284,4.967-3.424,8.611-6.793,11.295
						C286.757,131.72,286.228,120.844,289.496,119.792z"/>
					<g>
						<g>
							<path style="fill:#312A3C;" d="M288.618,127.758c0.25-1.209,0.549-2.462,1.272-3.488c0.761-1.079,1.758-1.366,2.934-1.789
								c0.22-0.079,0.245-0.403,0-0.473c-1.171-0.333-2.317,0.495-3.032,1.377c-0.982,1.213-1.285,2.779-1.49,4.286
								C288.275,127.873,288.574,127.969,288.618,127.758L288.618,127.758z"/>
						</g>
						<g>
							<path style="fill:#312A3C;" d="M290.302,123.978c0.481,0.245,0.861,0.639,1.055,1.148c0.079,0.208,0.127,0.429,0.136,0.652
								c0.01,0.242-0.04,0.385,0.086,0.6c0.076,0.13,0.278,0.168,0.385,0.05c0.374-0.416,0.058-1.199-0.19-1.624
								c-0.307-0.528-0.778-0.911-1.347-1.124C290.255,123.614,290.138,123.894,290.302,123.978L290.302,123.978z"/>
						</g>
					</g>
				</g>
				<g>
					<path style="fill:#FFC3AB;" d="M247.462,119.792c-2.131-0.686-4.094,0.711-4.61,2.706c-1.284,4.967,3.425,8.611,6.793,11.295
						C250.201,131.72,250.729,120.844,247.462,119.792z"/>
					<g>
						<g>
							<path style="fill:#312A3C;" d="M248.655,127.671c-0.204-1.504-0.506-3.076-1.49-4.286c-0.716-0.881-1.859-1.71-3.031-1.377
								c-0.244,0.07-0.221,0.393,0,0.473c1.186,0.427,2.165,0.699,2.934,1.789c0.723,1.025,1.022,2.279,1.272,3.488
								C248.383,127.969,248.682,127.873,248.655,127.671L248.655,127.671z"/>
						</g>
						<g>
							<path style="fill:#312A3C;" d="M246.529,123.679c-0.569,0.213-1.039,0.596-1.347,1.124c-0.249,0.428-0.565,1.207-0.19,1.624
								c0.107,0.118,0.309,0.081,0.385-0.05c0.113-0.192,0.082-0.312,0.084-0.532c0.002-0.246,0.051-0.49,0.138-0.72
								c0.195-0.51,0.574-0.903,1.055-1.148C246.818,123.895,246.704,123.613,246.529,123.679L246.529,123.679z"/>
						</g>
					</g>
				</g>
			</g>
			<g>
				<path style="fill:#ECA66D;" d="M268.178,98.3c-2.401-1.624-4.409-3.84-7.016-5.107c-2.607-1.267-6.233-1.232-7.905,1.136
					c-1.747,2.474-0.436,5.93,1.313,8.403c-4.272,0.665-11.476,3.207-10.131,7.316c0.662,2.021,4.201,1.075,6.194,0.332
					c-1.456,1.408-2.639,3.097-3.464,4.947c-0.718,1.609-1.035,3.788,0.341,4.889c1.464,1.172,3.614,0.209,5.172-0.834
					c3.83-2.564,7.393-5.525,10.616-8.82c-0.534,2.166-0.905,4.863,0.832,6.262c1.403,1.13,3.51,0.748,5.088-0.12
					s2.926-2.151,4.599-2.819c-0.099,1.37,1.027,2.621,2.349,2.993c1.322,0.373,2.755,0.019,3.977-0.607
					c4.578-2.346,7.712-10.88,2.635-14.517c-1.681-1.204-3.574-0.491-5.485-0.511C274.061,101.21,270.85,100.108,268.178,98.3z"/>
				<path style="fill:#ECA66D;" d="M286.817,106.476c2.111,1.267,3.305,3.681,3.757,6.1c0.729,3.896-0.252,8.082-2.637,11.249
					C287.124,124.905,272.401,97.822,286.817,106.476z"/>
			</g>
		</g>
	</g>
	<g>
		<g>
			<g>
				<g>
					<path style="fill:#DDD3C1;" d="M358.075,432.811c0.56,1.761-1.962,4.424-3.355,5.531c-4.031,3.208-9.889,3.65-13.889,6.703
						c4.449,2.444,11.886,2.585,16.775,2.041c1.591-0.177,9.958-1.21,10.783-3.373c0.945-2.48-2.91-8.251-3.913-10.066
						C362.518,430.106,362.414,431.129,358.075,432.811z"/>
					<path style="fill:#A85858;" d="M378.272,305.825c-4.097,0-7.665,41.637-9.735,52.664c0,0,1.64,18.641-3.501,76.121
						c-0.26,2.904-7.762,0.999-7.762,0.999s-10.828-59.916-12.696-74.732c-2.922-23.174-7.851-61.657,0.242-87.732
						c2.438-2.054,18.134-3.081,33.83-3.081"/>
				</g>
				<g>
					<path style="fill:#DDD3C1;" d="M398.886,432.751c-0.56,1.761,1.962,4.424,3.355,5.531c4.031,3.208,9.889,3.65,13.889,6.703
						c-4.449,2.444-11.886,2.585-16.775,2.041c-1.591-0.177-9.958-1.21-10.783-3.372c-0.945-2.48,2.91-8.251,3.913-10.066
						C394.443,430.047,394.547,431.069,398.886,432.751z"/>
					<path style="fill:#A85858;" d="M379.724,308.426c4.097,0,6.592,39.036,8.662,50.063c0,0-1.64,18.641,3.501,76.121
						c0.26,2.904,7.762,0.999,7.762,0.999s10.828-59.916,12.696-74.732c2.922-23.174,7.851-61.657-0.242-87.732
						c-2.438-2.054-18.134-3.081-33.83-3.081"/>
				</g>
			</g>
			<path style="fill:#DDD3C1;" d="M413.269,269.683c-4.979-4.195-64.106-4.195-69.085,0c-8.263,26.624-22.986,56.306-18.443,87.72
				c2.905,20.085,103.065,20.085,105.97,0C436.255,325.989,421.532,296.307,413.269,269.683z"/>
		</g>
		<g>
			<path style="fill:#A85858;" d="M391.216,176.365c-3.182-3.817-3.28-13.093-3.385-19.867c-3.874,0.025-14.335,0.025-18.209,0
				c-0.105,6.774-0.203,16.05-3.385,19.867c-3.394,4.072-21.572,8.627-20.965,9.2c4.431,4.081,18.655,27.387,32.985,27.431
				c14.643,0.045,29.396-23.261,33.924-27.431C412.788,184.991,394.61,180.437,391.216,176.365z"/>
			<path style="fill:#CF6730;" d="M398.805,180.247c-8.702-3.022-9.259-6.503-8.805-9.021c0.454-2.518-1.19-2.723-1.19-2.723
				c0-1.185-21.107-1.185-21.107,0c0,0-1.644,0.205-1.19,2.723c0.454,2.518-0.103,5.999-8.805,9.021
				c-3.715,8.511,20.548,31.476,20.548,31.476S402.521,188.757,398.805,180.247z"/>
			<path style="fill:#DDD3C1;" d="M415.306,277.661c-1.03-19.229-4.679-58.733-3.586-71.068c0.549-6.198,0.565-21.031,0.565-21.031
				s-14.481-7.954-15.316-6.167c-2.101,4.498-15.998,26.931-18.712,26.894c-2.67-0.037-16.237-22.469-18.304-26.894
				c-0.835-1.787-15.316,6.167-15.316,6.167s0.016,14.833,0.565,21.031c1.093,12.334-2.556,51.839-3.586,71.068
				C354.785,280.237,402.138,280.237,415.306,277.661z"/>
			<g>
				<path style="fill:#A85858;" d="M368.863,294.071c-0.912,1.697-5.937-3.033-6.368-0.692c0.472,1.62,8.489,12.26,6.207,13.345
					c-1.456,0.692-5.667-7.094-7.63-8.297c0.711,4.779,3.596,12.059,2.32,12.478c-2.077,0.682-5.241-11.178-6.296-10.775
					c-1.566,0.599,1.71,10.757,0.293,11.267c-1.461,0.526-2.7-8.711-4.744-11.542c-1.29,0.571-0.517,9.333-2.228,9.536
					c-0.599,0.071-1.341-16.531-2.034-20.724c0,0-4.362-14.589-4.331-15.535c0.096-2.97,7.202-3.151,9.852-3.049
					c1.432,0.056,1.168,13.118,7.597,16.982C363.725,288.404,369.609,292.682,368.863,294.071z"/>
				<g>
					<path style="fill:#CF6730;" d="M334.043,199.14c-0.43,2.667-3.242,13.516-0.382,38.619c0.726,6.37,11.678,46.021,13.017,46.441
						c1.882,0.59,10.652,1.411,9.757-5.84c-4.648-37.67-7.938-40.669-7.938-40.669c0.406-20.882,3.515-53.689,0.509-54.422
						C349.007,183.269,335.795,188.278,334.043,199.14z"/>
				</g>
			</g>
			<g>
				<path style="fill:#A85858;" d="M342.153,232.563c-1.369,1.356,4.592,4.833,2.469,5.911c-1.687,0.007-11.835-2.929-12.228-0.434
					c-0.251,1.592,6.081,1.689,7.791,3.229c-4.784,0.674-6.775-0.31-6.815,1.033c-0.064,2.186,6.397,2.137,6.309,3.263
					c-0.13,1.671-5.548,0.454-5.635,1.957c-0.09,1.55,3.866,1.076,7.16,2.233c-0.182,1.399-5.948,0.626-5.656,2.324
					c0.102,0.594,13.377-0.884,17.594-1.41c0,0,15.227,0.045,16.126-0.253c2.821-0.934,0.979-7.8,0.13-10.312
					c-0.459-1.358-12.911,2.601-18.439-2.469C349.045,235.883,343.273,231.454,342.153,232.563z"/>
				<g>
					<path style="fill:#CF6730;" d="M422.453,196.332c0.464,6.677,3.891,50.86-4.667,53.668c-22.1,7.252-54.969,5.333-56.551,2.757
						c-4.62-7.523-0.895-14.298-0.895-14.298s26.391,3.996,44.763-6.072c5.517-3.024-0.255-51.725,4.492-48.257
						C409.595,184.131,421.978,189.506,422.453,196.332z"/>
				</g>
			</g>
		</g>
		<g>
			<g>
				<path style="fill:#A85858;" d="M358.24,142.014c0,12.754,3.28,20.236,20.486,20.236c17.207,0,20.486-7.482,20.486-20.236
					C399.213,115.599,358.24,112.204,358.24,142.014z"/>
				<g>
					<path style="fill:#312A3C;" d="M368.41,161.042c6.107,2.879,13.217,2.711,19.598,0.842c0.478-0.14,0.272-0.895-0.206-0.748
						c-6.618,2.035-12.747,1.491-19.362-0.165C368.399,160.96,368.369,161.022,368.41,161.042L368.41,161.042z"/>
				</g>
			</g>
			<g>
				<path style="fill:#312A3C;" d="M373.183,141.987c0,1.108-0.539,2.005-1.203,2.005c-0.664,0-1.203-0.898-1.203-2.005
					c0-1.108,0.539-2.005,1.203-2.005C372.644,139.982,373.183,140.879,373.183,141.987z"/>
				<path style="fill:#312A3C;" d="M386.208,141.987c0,1.108-0.539,2.005-1.203,2.005c-0.664,0-1.203-0.898-1.203-2.005
					c0-1.108,0.539-2.005,1.203-2.005C385.67,139.982,386.208,140.879,386.208,141.987z"/>
				<g>
					<path style="fill:#312A3C;" d="M383.55,136.959c0.688-0.272,1.406-0.37,2.137-0.228c0.639,0.124,1.112,0.52,1.709,0.71
						c0.216,0.069,0.443-0.204,0.307-0.399c-0.888-1.275-3.122-1.125-4.362-0.58C383.062,136.585,383.263,137.072,383.55,136.959
						L383.55,136.959z"/>
				</g>
				<g>
					<path style="fill:#312A3C;" d="M374.112,136.463c-1.241-0.545-3.474-0.695-4.362,0.58c-0.136,0.194,0.089,0.468,0.307,0.399
						c0.597-0.19,1.07-0.586,1.709-0.71c0.731-0.142,1.45-0.043,2.138,0.228C374.187,137.071,374.394,136.586,374.112,136.463
						L374.112,136.463z"/>
				</g>
				<g>
					<path style="fill:#312A3C;" d="M375.764,151.038c1.241,1.495,4.401,1.85,5.191-0.349c0.098-0.274-0.267-0.43-0.454-0.264
						c-0.637,0.565-1.037,1.162-1.927,1.346c-0.992,0.206-1.953-0.192-2.646-0.897C375.822,150.765,375.67,150.925,375.764,151.038
						L375.764,151.038z"/>
				</g>
				<g>
					<path style="fill:#312A3C;" d="M378.717,138.206c-0.03,1.488-0.223,3.007-0.602,4.45c-0.214,0.816-0.505,1.626-0.869,2.386
						c-0.158,0.33-0.725,1.051-0.763,1.442c-0.104,1.082,1.245,1.397,2.104,1.715c0.103,0.038,0.173-0.128,0.075-0.177
						c-0.354-0.176-0.855-0.351-1.137-0.635c-0.867-0.872-0.437-1.091-0.058-1.84c0.351-0.692,0.647-1.412,0.879-2.153
						c0.54-1.726,0.628-3.394,0.409-5.188C378.753,138.182,378.717,138.18,378.717,138.206L378.717,138.206z"/>
				</g>
			</g>
			<g>
				<g>
					<path style="fill:#A85858;" d="M398.686,136.282c2.024-0.651,3.888,0.676,4.378,2.57c1.219,4.717-3.252,8.178-6.451,10.727
						C396.085,147.61,395.583,137.281,398.686,136.282z"/>
					<g>
						<g>
							<path style="fill:#312A3C;" d="M397.852,143.848c0.237-1.148,0.521-2.338,1.208-3.312c0.723-1.025,1.669-1.297,2.786-1.699
								c0.209-0.075,0.232-0.383,0-0.449c-1.112-0.316-2.201,0.47-2.879,1.308c-0.933,1.152-1.221,2.639-1.415,4.07
								C397.527,143.957,397.811,144.048,397.852,143.848L397.852,143.848z"/>
						</g>
						<g>
							<path style="fill:#312A3C;" d="M399.452,140.257c0.457,0.233,0.818,0.607,1.002,1.091c0.076,0.198,0.121,0.408,0.129,0.619
								c0.009,0.23-0.038,0.365,0.082,0.569c0.073,0.124,0.264,0.16,0.365,0.047c0.355-0.395,0.055-1.139-0.18-1.542
								c-0.292-0.501-0.739-0.865-1.279-1.068C399.407,139.912,399.296,140.178,399.452,140.257L399.452,140.257z"/>
						</g>
					</g>
				</g>
				<g>
					<path style="fill:#A85858;" d="M358.767,136.282c-2.024-0.651-3.888,0.676-4.378,2.57c-1.219,4.717,3.252,8.178,6.451,10.727
						C361.368,147.61,361.87,137.281,358.767,136.282z"/>
					<g>
						<g>
							<path style="fill:#312A3C;" d="M359.9,143.765c-0.194-1.428-0.48-2.921-1.415-4.07c-0.68-0.836-1.765-1.624-2.879-1.308
								c-0.232,0.066-0.21,0.373,0,0.449c1.126,0.405,2.056,0.664,2.786,1.699c0.687,0.974,0.971,2.164,1.208,3.312
								C359.642,144.048,359.926,143.957,359.9,143.765L359.9,143.765z"/>
						</g>
						<g>
							<path style="fill:#312A3C;" d="M357.882,139.974c-0.541,0.203-0.987,0.566-1.279,1.068c-0.236,0.406-0.536,1.146-0.18,1.542
								c0.101,0.113,0.293,0.077,0.365-0.047c0.107-0.182,0.078-0.296,0.08-0.505c0.002-0.233,0.048-0.466,0.131-0.684
								c0.185-0.484,0.545-0.857,1.002-1.091C358.155,140.179,358.048,139.911,357.882,139.974L357.882,139.974z"/>
						</g>
					</g>
				</g>
			</g>
			<g>
				<path style="fill:#312A3C;" d="M359.888,125.723c-0.469,0.051-0.971,0.096-1.387-0.127c-0.38-0.203-0.616-0.593-0.834-0.964
					c-0.726-1.237-1.465-2.508-1.723-3.919c-0.258-1.412,0.058-3.017,1.154-3.943c1.049-0.886,2.535-0.971,3.832-1.423
					c3.448-1.202,5.715-5.079,9.345-5.47c1.711-0.184,3.493,0.531,4.602,1.845c1.109,1.315,1.514,3.192,1.044,4.847
					c-0.469,1.654-1.704,2.969-2.955,4.15c-2.41,2.276-5.196,4.394-8.471,4.913C363.056,125.861,361.417,125.557,359.888,125.723z"
					/>
				<path style="fill:#312A3C;" d="M397.737,157.827c0.03-1.185,0.609-2.276,1.115-3.348c8.881-18.848-2.695-39.186-23.273-37.6
					c-2.486,0.191-5.809,0.776-7.477,2.855c-1.621,2.02-0.096,4.77,1.24,6.63c1.587,2.209,3.636,4.083,5.977,5.468
					c3.583,2.119,7.727,3.048,11.573,4.639c3.365,1.392,6.698,3.525,8.402,6.668c0.424,1.193,0.622,2.438,0.427,3.692
					c-0.458,2.949-2.936,5.383-2.998,8.367c-0.043,2.046,1.064,3.908,1.939,5.757c0.875,1.85,1.534,4.06,0.62,5.89
					c-0.456,0.914-1.254,1.611-1.797,2.476c-1.483,2.363-0.552,5.895,1.904,7.221c-0.445-1.342-0.24-2.882,0.539-4.061
					c0.463-0.701,1.103-1.262,1.647-1.902c1.893-2.227,2.512-5.468,1.574-8.236C398.639,160.837,397.697,159.415,397.737,157.827z"
					/>
				<path style="fill:#312A3C;" d="M370.694,126.364c-1.405,2.326-6.657,7.232-7.929,9.634c-1.839,3.473-2.169,7.714-0.891,11.43
					c0.902,2.62,2.587,5.224,2.006,7.933c-0.283,1.32-1.089,2.482-1.366,3.803c-0.375,1.786,0.256,3.616,0.93,5.311
					c0.675,1.695,1.418,3.451,1.274,5.27c-0.144,1.819-1.523,3.691-3.347,3.675c0.357-1.049,0.719-2.13,0.652-3.236
					c-0.193-3.171-3.724-5.272-4.215-8.411c-0.441-2.821,1.704-5.415,1.936-8.26c0.308-3.764-2.683-6.907-3.946-10.466
					c-0.625-1.762-0.825-3.646-0.916-5.514c-0.168-3.444,0.035-6.99,1.393-10.16c1.358-3.17,4.036-5.924,7.406-6.654
					C370.068,119.335,373.232,122.162,370.694,126.364z"/>
			</g>
		</g>
	</g>
	<g>
		<g>
			<g>
				<g>
					<path style="fill:#312A3C;" d="M212.313,431.86c-0.602,1.893,2.11,4.756,3.607,5.947c4.334,3.449,10.632,3.924,14.932,7.207
						c-4.784,2.627-12.779,2.779-18.035,2.194c-1.71-0.19-10.706-1.3-11.593-3.626c-1.016-2.666,3.129-8.871,4.207-10.822
						C207.536,428.952,207.648,430.051,212.313,431.86z"/>
					<path style="fill:#312A3C;" d="M191.711,298.192c4.405,0,7.088,41.969,9.313,53.825c0,0-1.763,20.042,3.764,81.841
						c0.279,3.122,8.345,1.074,8.345,1.074s11.642-64.418,13.65-80.348c3.141-24.915,8.44-66.29-0.261-94.324
						c-2.621-2.208-19.497-3.313-36.372-3.313L191.711,298.192z"/>
				</g>
				<g>
					<path style="fill:#312A3C;" d="M189.599,431.86c-0.602,1.893,2.11,4.756,3.607,5.947c4.334,3.449,10.632,3.924,14.932,7.207
						c-4.784,2.627-12.779,2.779-18.035,2.194c-1.71-0.19-10.706-1.3-11.593-3.626c-1.016-2.666,3.129-8.871,4.207-10.822
						C184.823,428.952,184.935,430.051,189.599,431.86z"/>
					<path style="fill:#312A3C;" d="M168.997,298.192c4.405,0,7.088,41.969,9.313,53.825c0,0-1.763,20.042,3.764,81.841
						c0.279,3.122,8.345,1.074,8.345,1.074s11.642-64.418,13.65-80.348c3.141-24.915,8.441-66.29-0.261-94.324
						c-2.621-2.208-19.497-3.313-36.372-3.313L168.997,298.192z"/>
				</g>
			</g>
			<g>
				<path style="fill:#CF6730;" d="M145.389,344.161c-2.183,11.884,77.802,21.592,110.737,8.982
					c4.473-1.712-11.459-57.61-20.08-79.195c-12.337-30.886-68.735-49.617-77.98,7.06
					C151.451,321.553,149.985,319.14,145.389,344.161z"/>
			</g>
		</g>
		<g>
			<path style="fill:#A85858;" d="M185.873,177.138c3.182-3.817,3.28-13.093,3.385-19.867c3.874,0.025,14.335,0.025,18.209,0
				c0.105,6.774,0.203,16.05,3.385,19.867c3.394,4.072,17.105,13.72,16.498,14.293c-4.184,3.853-11.101,12.115-24.592,12.369
				c-15.397,0.29-33.075-13.065-37.85-17.462C164.301,185.764,182.479,181.21,185.873,177.138z"/>
			<path style="fill:#DDD3C1;" d="M232.147,201.949c-4.077-12.482-9.217-20.515-13.745-22.48
				c-3.482-1.511-4.254,13.782-0.523,29.685c2.559,10.906,8.426,22.082,9.415,28.338c4.716,2.204,9.628,3.397,14.433,4.686
				C243.562,230.693,236.953,216.664,232.147,201.949z"/>
			<g>
				<path style="fill:#DDD3C1;" d="M164.893,218.544c-0.878,1.147,4.605,15.57,1.482,27.369c-3.88,14.658-6.341,23.171-6.223,23.501
					c0.292,0.813,1.127,1.288,1.928,1.613c4.479,1.816,33.171,12.875,70.012-3.062c-1.344-8.686-3.733-17.209-7.099-25.328
					c-0.817-1.97-1.703-3.963-1.867-6.09c-0.183-2.38,0.553-4.722,1.188-7.023c2.367-8.576,4.978-19.251,4.677-28.143
					c-0.059-1.746-1.086-8.114-6.063-19.182c-0.415-0.922-7.304-4.438-10.084-4.418c-0.44,0.003-0.393-8.769-3.879-8.125
					c-11.889,2.197-25.11-1.665-24.535,1.334c1.16,6.058-5.491,10.542-5.601,10.198c0,0-12.594,2.383-15.13,3.909
					C163.7,185.098,172.653,208.411,164.893,218.544z"/>
				<g>
					<path style="fill:#312A3C;" d="M216.699,180.075c2.645,8.517,6.455,17.445,7.774,26.27c1.172,7.84-3.447,16.032-0.355,23.634
						c0.125,0.308,0.688,0.316,0.645-0.087c-0.852-7.984,2.239-15.875,0.87-23.779c-1.529-8.826-5.797-17.666-8.752-26.087
						C216.84,179.913,216.663,179.958,216.699,180.075L216.699,180.075z"/>
				</g>
			</g>
			<g>
				<path style="fill:#A85858;" d="M213.002,288.044c-0.327,1.898-6.592-0.993-6.259,1.364c0.961,1.387,11.939,8.935,10.119,10.687
					c-1.161,1.118-7.624-4.93-9.867-5.448c2.189,4.307,7.236,10.296,6.158,11.098c-1.754,1.305-8.516-8.939-9.389-8.221
					c-1.295,1.065,5.033,9.66,3.852,10.593c-1.219,0.962-5.323-7.405-8.16-9.441c-1.042,0.95,2.47,9.015,0.911,9.75
					c-0.545,0.257-6.515-15.251-8.502-19.009c0,0-8.764-12.453-9.035-13.36c-0.851-2.847,5.831-5.273,8.376-6.016
					c1.376-0.402,5.268,12.071,12.591,13.696C206.331,284.299,213.269,286.49,213.002,288.044z"/>
				<g>
					<path style="fill:#DDD3C1;" d="M163.7,185.098c-4.673,1.901-13.043,50.629-0.712,71.266
						c11.93,19.966,23.695,31.978,26.627,31.245c3.574-0.894,8.681-7.66,8.681-7.66s-11.743-21.269-23.008-38.932
						c-6.486-10.17,6.117-40.831,0.248-41.182C175.536,199.835,171.232,182.034,163.7,185.098z"/>
					<g>
						<path style="fill:#312A3C;" d="M174.213,239.428c4.071,5.899,7.901,11.952,11.425,18.195
							c3.512,6.223,6.328,12.905,10.023,19.006c0.16,0.264,0.619,0.095,0.514-0.217c-4.478-13.284-13.476-25.911-21.638-37.173
							C174.398,239.046,174.075,239.227,174.213,239.428L174.213,239.428z"/>
					</g>
					<g>
						<path style="fill:#312A3C;" d="M180.009,193.82c-1.795,7.622-3.388,15.323-4.311,23.105
							c-0.897,7.562-2.036,15.841-0.934,23.415c0.039,0.267,0.506,0.27,0.542,0c0.962-7.102,0.595-14.414,1.327-21.569
							c0.854-8.351,2.044-16.637,3.647-24.877C180.315,193.719,180.051,193.642,180.009,193.82L180.009,193.82z"/>
					</g>
				</g>
			</g>
			<g>
				<path style="fill:#A85858;" d="M205.382,291.638c0.825,1.741,6.083-2.728,6.395-0.368c-0.553,1.594-9.099,11.815-6.875,13.013
					c1.419,0.765,6.019-6.797,8.04-7.9c-0.951,4.737-4.202,11.862-2.948,12.345c2.04,0.786,5.8-10.899,6.834-10.442
					c1.533,0.677-2.252,10.657-0.863,11.238c1.432,0.599,3.137-8.564,5.322-11.287c1.259,0.635,0.044,9.347,1.743,9.636
					c0.594,0.101,2.177-16.441,3.081-20.594c0,0,5.095-14.35,5.112-15.296c0.055-2.971-7.033-3.512-9.684-3.543
					c-1.433-0.017-1.831,13.042-8.447,16.576C210.801,286.238,204.707,290.213,205.382,291.638z"/>
				<g>
					<path style="fill:#DDD3C1;" d="M227.294,237.492c0.168,1.064,0.212,2.002,0.057,2.755c-4.237,20.516-11.31,39.064-11.31,39.064
						c-0.27,1.345,7.404,4.468,11.31,5.179c2.974,0.542,7.754-17.553,13.879-39.991c0.208-0.761,0.371-1.535,0.497-2.321
						C236.921,240.889,232.009,239.695,227.294,237.492z"/>
					<g>
						<path style="fill:#312A3C;" d="M225.842,246.583c-3.125,8.608-6.22,17.083-7.936,26.108c-0.123,0.648,0.87,0.926,0.994,0.274
							c1.698-8.93,4.499-17.641,7.122-26.332C226.058,246.516,225.882,246.471,225.842,246.583L225.842,246.583z"/>
					</g>
				</g>
			</g>
		</g>
		<g>
			<path style="fill:#312A3C;" d="M175.217,120.645c-2.484,3.82-5.054,7.995-9.256,9.758c-17.414,7.306-5.618,13.037-15.997,25.672
				c-2.112,2.571-4.579,4.906-6.129,7.85c-3.254,6.179-1.67,14.233,2.932,19.486c4.602,5.252,11.726,7.865,18.708,8.013
				c2.82,0.06,5.691-0.26,8.288-1.363c3.591-1.525,6.422-4.445,8.68-7.627c4.027-5.676,6.549-12.983,4.516-19.638
				c-0.756-2.475-2.125-4.845-2.085-7.433c0.041-2.663,1.594-5.088,3.479-6.969c1.885-1.881,4.128-3.365,6.074-5.184
				c5.576-5.212,8.73-13.963,7.403-21.571c-1.142-6.547-9.546-10.646-15.744-9.867C181.076,112.401,177.783,116.699,175.217,120.645
				z"/>
			<g>
				<path style="fill:#A85858;" d="M222.428,149.5c-2.339,12.538-6.935,19.291-23.85,16.135
					c-16.915-3.156-18.767-11.112-16.428-23.65C186.995,116.018,227.895,120.195,222.428,149.5z"/>
				<g>
					<path style="fill:#312A3C;" d="M208.942,166.339c-6.532,1.71-13.49,0.241-19.42-2.766c-0.445-0.226-0.104-0.93,0.34-0.698
						c6.133,3.214,12.258,3.803,19.063,3.389C208.967,166.262,208.986,166.328,208.942,166.339L208.942,166.339z"/>
				</g>
			</g>
			<g>
				<path style="fill:#312A3C;" d="M208.686,146.438c-0.203,1.089,0.162,2.07,0.815,2.192c0.653,0.122,1.347-0.662,1.551-1.751
					c0.203-1.089-0.162-2.07-0.815-2.192C209.583,144.565,208.889,145.349,208.686,146.438z"/>
				<path style="fill:#312A3C;" d="M195.881,144.049c-0.203,1.089,0.162,2.07,0.815,2.192c0.653,0.122,1.348-0.662,1.551-1.751
					c0.203-1.089-0.162-2.07-0.815-2.192C196.779,142.176,196.084,142.96,195.881,144.049z"/>
				<g>
					<path style="fill:#312A3C;" d="M199.417,139.594c-0.626-0.393-1.315-0.622-2.059-0.616c-0.651,0.005-1.189,0.308-1.81,0.385
						c-0.225,0.028-0.398-0.281-0.228-0.448c1.107-1.09,3.275-0.533,4.395,0.23C199.965,139.316,199.678,139.758,199.417,139.594
						L199.417,139.594z"/>
				</g>
				<g>
					<path style="fill:#312A3C;" d="M208.785,140.837c1.32-0.308,3.543-0.046,4.182,1.37c0.098,0.216-0.174,0.444-0.375,0.336
						c-0.552-0.296-0.944-0.772-1.55-1.012c-0.693-0.274-1.417-0.309-2.143-0.168C208.601,141.421,208.486,140.907,208.785,140.837
						L208.785,140.837z"/>
				</g>
				<g>
					<path style="fill:#312A3C;" d="M204.489,154.862c-1.494,1.242-4.666,1.011-5.039-1.295c-0.046-0.287,0.341-0.373,0.495-0.177
						c0.522,0.672,0.807,1.332,1.648,1.677c0.938,0.384,1.955,0.17,2.765-0.397C204.482,154.583,204.602,154.768,204.489,154.862
						L204.489,154.862z"/>
				</g>
				<g>
					<path style="fill:#312A3C;" d="M203.939,141.706c-0.243,1.469-0.332,2.997-0.224,4.485c0.061,0.841,0.198,1.691,0.417,2.505
						c0.095,0.353,0.52,1.166,0.485,1.557c-0.096,1.083-1.48,1.145-2.383,1.3c-0.108,0.019-0.146-0.158-0.041-0.188
						c0.38-0.108,0.905-0.188,1.235-0.416c1.012-0.698,0.63-0.992,0.394-1.798c-0.218-0.745-0.377-1.507-0.469-2.278
						c-0.215-1.796,0.006-3.451,0.549-5.175C203.908,141.675,203.943,141.68,203.939,141.706L203.939,141.706z"/>
				</g>
			</g>
			<g>
				<path style="fill:#A85858;" d="M184.661,136.152c-1.87-1.011-3.946-0.049-4.775,1.723c-2.064,4.413,1.697,8.635,4.375,11.728
					C185.141,147.766,187.529,137.704,184.661,136.152z"/>
				<g>
					<g>
						<path style="fill:#312A3C;" d="M184.093,143.743c-0.023-1.172-0.084-2.394-0.58-3.478c-0.522-1.14-1.403-1.581-2.427-2.181
							c-0.192-0.112-0.158-0.419,0.082-0.441c1.151-0.107,2.077,0.866,2.59,1.813c0.706,1.304,0.716,2.818,0.644,4.261
							C184.393,143.91,184.097,143.947,184.093,143.743L184.093,143.743z"/>
					</g>
					<g>
						<path style="fill:#312A3C;" d="M183.18,139.92c-0.492,0.145-0.915,0.447-1.185,0.888c-0.111,0.181-0.193,0.379-0.24,0.585
							c-0.051,0.224-0.03,0.366-0.185,0.545c-0.094,0.108-0.289,0.108-0.368-0.021c-0.277-0.453,0.155-1.13,0.46-1.483
							c0.379-0.439,0.885-0.715,1.453-0.815C183.287,139.589,183.347,139.87,183.18,139.92L183.18,139.92z"/>
					</g>
				</g>
			</g>
			<path style="fill:#312A3C;" d="M199.12,130.474c2.722,2.507,6.605,3.316,10.303,3.465c8.882,0.357,11.506,12.676,8.777,19.614
				c-1.141,2.901-0.571,6.405,1.43,8.795c0.391-2.639,2.794-4.425,4.921-6.036c7.031-5.327,5.928-18.063,2.579-25.597
				c-2.264-5.093-7.7-10.567-12.947-12.447C206.938,115.671,188.545,120.735,199.12,130.474z"/>
			<path style="fill:#312A3C;" d="M193.283,136.786c-1.951,2.381-4.784,4.379-7.853,4.139c-0.398-0.031-0.806-0.104-1.143-0.319
				c-0.335-0.213-0.573-0.548-0.766-0.894c-1.018-1.825-0.959-4.06-0.585-6.117c0.613-3.378,2.077-6.711,4.676-8.956
				c2.588-2.237,8.199-4.202,9.707,0.117C198.633,128.523,195.558,134.01,193.283,136.786z"/>
		</g>
	</g>
</g>
</svg>
