<?xml version="1.0" encoding="utf-8"?>
<!-- Generator: Adobe Illustrator 27.5.0, SVG Export Plug-In . SVG Version: 6.00 Build 0)  -->
<svg version="1.1" xmlns="http://www.w3.org/2000/svg" xmlns:xlink="http://www.w3.org/1999/xlink" x="0px" y="0px"
	 viewBox="0 0 500 500" style="enable-background:new 0 0 500 500;" xml:space="preserve">
<g id="BACKGROUND">
	<rect style="fill:#31231E;" width="500" height="500"/>
</g>
<g id="OBJECTS">
	<g>
		<defs>
			<rect id="SVGID_1_" width="500" height="500"/>
		</defs>
		<clipPath id="SVGID_00000117658934636190843200000016162702513502515095_">
			<use xlink:href="#SVGID_1_"  style="overflow:visible;"/>
		</clipPath>
		<path style="clip-path:url(#SVGID_00000117658934636190843200000016162702513502515095_);fill:#84714F;" d="M393.231,208.604
			c0,0,20.773-125.114,107.738-163.28c0,30.514,0,209.009,0,209.009L393.231,208.604z"/>
		<g style="clip-path:url(#SVGID_00000117658934636190843200000016162702513502515095_);">
			<path style="fill:#5A3A31;" d="M205.875,231.47c0,0-20.895-99.149,55.72-119.224c76.615-20.075,127.418-2.868,130.696,9.423
				c3.278,12.291,6.555,116.356,6.555,116.356L205.875,231.47z"/>
			<path style="fill:#F7931E;" d="M264.668,85l2.048,40.971c0,0,39.332,6.965,56.949-7.375c-1.229-18.437,0-61.046,0-61.046
				L264.668,85z"/>
			<path style="fill:#F7931E;" d="M238.857,130.887c0,0,33.596-24.992,115.946-16.798c-20.895,37.283-36.054,44.658-64.733,46.297
				C261.39,162.025,242.134,143.998,238.857,130.887z"/>
			<path style="fill:#E56E1F;" d="M265.661,104.854c11.685,1.425,24.235,2.016,29.68-0.901c8.927-4.782,19.343-15.77,28.158-39.716
				c0.093-4.129,0.167-6.688,0.167-6.688l-58.997,27.45L265.661,104.854z"/>
			<g>
				<path style="fill:#F7931E;" d="M335.547,23.545c0,0,9.013-53.262-40.971-55.72c-49.984-2.458-65.553,34.006-63.914,58.178
					c1.639,24.173,15.159,57.768,15.159,57.768s43.019,9.423,54.491,3.278C311.784,80.903,325.714,64.515,335.547,23.545z"/>
				<path style="fill:#E3D888;" d="M264.668-25.21c0,0-6.555-18.846,24.582-31.138c0.819,9.014-5.736,15.569-5.736,15.569
					s9.014-18.846,34.825-11.472c-1.229,7.784-9.833,14.34-9.833,14.34s34.005,4.507,40.97,28.27s-19.773,53.51-19.773,53.51
					s-1.317-28.6,4.721-44.947C332.36,0.191,334.318-37.501,264.668-25.21z"/>
				<path style="fill:#F7931E;" d="M327.558,49.755c0,0,3.892,9.843,12.496,5.337c8.604-4.507,27.04-27.86,5.326-31.547
					C323.666,19.857,327.558,49.755,327.558,49.755z"/>
				<g>
					<path style="fill:#5A3A31;" d="M269.304,47.058c0,0,0.612,7.187-17.127,8.105C250.954,53.481,263.952,42.929,269.304,47.058z"
						/>
					<path style="fill:#5A3A31;" d="M268.797,47.297c0,0-0.765,8.991,21.426,10.139C291.754,55.332,275.493,42.132,268.797,47.297z"
						/>
					<path style="fill:none;stroke:#5A3A31;stroke-width:2.8347;stroke-linecap:round;stroke-miterlimit:10;" d="M260.571,64.515
						c0,0,6.555-8.604,18.027-2.868"/>
					<path style="fill:#DD5E17;" d="M258.085,20.181c0,0-11.472,20.485,4.097,22.944h16.524c0,0,7.239-1.229,6.42-11.472
						c0,0-6.849-20.684-12.319-22.673C267.338,6.991,258.085,20.181,258.085,20.181z"/>
					<path style="fill:none;stroke:#5A3A31;stroke-width:2.8347;stroke-linecap:round;stroke-miterlimit:10;" d="M285.563-1.447
						c0,0,8.194-5.326,18.846-4.917"/>
					<path style="fill:none;stroke:#5A3A31;stroke-width:2.8347;stroke-linecap:round;stroke-miterlimit:10;" d="M246.641-3.905
						c0,0,9.014,1.229,13.93,4.097"/>
					<path style="fill:#31231E;" d="M249.793,12.742c-0.492,1.629-2.211,2.551-3.84,2.06c-1.629-0.492-2.551-2.211-2.06-3.84
						c0.492-1.629,2.211-2.551,3.84-2.06C249.363,9.393,250.285,11.112,249.793,12.742z"/>
					<path style="fill:#31231E;" d="M296.776,12.332c-0.492,1.629-2.211,2.551-3.84,2.06c-1.629-0.492-2.551-2.211-2.06-3.84
						c0.492-1.629,2.211-2.551,3.84-2.06S297.268,10.702,296.776,12.332z"/>
				</g>
				<g>
					<g>
						<path style="fill:#DD5E17;" d="M241.732-30.047c0.96,0,0.961-1.492,0-1.492C240.772-31.538,240.771-30.047,241.732-30.047
							L241.732-30.047z"/>
					</g>
				</g>
				<path style="fill:#DD5E17;" d="M330.464,43.076c0,0,3.077,6.08,9.878,3.296c6.801-2.784,21.375-17.209,4.21-19.486
					C327.387,24.608,330.464,43.076,330.464,43.076z"/>
			</g>
		</g>
		<g style="clip-path:url(#SVGID_00000117658934636190843200000016162702513502515095_);">
			<g>
				<path style="fill:#E3D888;" d="M352.643,195.226c0,0-23.697-1.732-36.902,12.957S291.55,375.667,291.55,375.667
					s65.605,13.677,87.832,13.814c40.812,0.252,53.887-21.35,53.887-21.35s-12.183-136.356-24.366-164.94
					C399.062,195.694,352.643,195.226,352.643,195.226z"/>
				<path style="fill:#E3D888;" d="M416.868,209.337c0,0,43.109,91.788,55.292,159.263c-3.28-0.469-41.235,0-41.235,0
					S412.183,231.414,416.868,209.337z"/>
				<path style="fill:#31231E;" d="M314.718,203.191c0,0,44.984,55.292,31.395,116.208c-13.589,60.915-54.563,30.636-54.563,30.636
					v25.632c0,0,110.219-10.932,67.215-138.738C339.451,179.529,314.718,203.191,314.718,203.191z"/>
				<path style="fill:#31231E;" d="M403.748,199.443l22.492,122.299c0,0,7.781-66.554,0-91.842
					C416.868,199.443,403.748,199.443,403.748,199.443z"/>
				<path style="fill:#EFB856;" d="M330.181,253.798c0,0,10.777,13.589,14.526,31.395c10.309-4.217,32.332-0.937,32.801-8.434
					s-7.029-38.424-18.743-39.829C347.05,235.523,330.181,253.798,330.181,253.798z"/>
				<path style="fill:#EFB856;" d="M373.371,256.428c0,0,5.074-5.441-0.08-13.407c-5.154-7.966-14.526-6.092-14.526-6.092
					S368.765,256.714,373.371,256.428z"/>
				<path style="fill:#EFB856;" d="M371.885,271.604c0,0,9.372-5.154,8.903-10.777c-0.469-5.623-4.217-6.915-8.903-8.378
					S371.885,271.604,371.885,271.604z"/>
				<path style="fill:#EFB856;" d="M367.983,287.757c0,0,13.742-4.439,12.805-9.593c-0.937-5.154-4.221-9.889-4.221-9.889
					S365.486,267.83,367.983,287.757z"/>
				<path style="fill:#E3D888;" d="M330.181,252.392c0,0-35.612,41.704-40.766,60.447c-11.404,13.495-15.545,21.691-2.343,33.738
					c12.326,11.247,55.761,23.429,57.635-61.384C343.77,281.913,341.896,263.638,330.181,252.392z"/>
				<path style="fill:#E3D888;" d="M317.019,206.223c0,0-66.083,98.811-34.66,135.279c34.262,8.273,54.383-56.31,54.383-56.31
					l-4.306-30.415l6.214-8.807C338.65,245.971,332.908,222.376,317.019,206.223z"/>
			</g>
			<g>
				<path style="fill:#5A3A31;" d="M358.765,177.888c0,0-76.847,7.966-81.533-57.167c16.869-7.497,29.989-17.806,31.863-28.115
					c1.874-10.309-4.686-27.646,17.806-39.829c4.217-14.526,49.602-37.655,99.339-22.96c41.235,12.183,29.052,82.001,29.052,82.001
					s10.777,31.863,22.492,41.235C467.006,166.174,414.057,198.037,358.765,177.888z"/>
				<path style="fill:#EFB856;" d="M361.081,171.122l-2.316,29.258c0,0,9.606,20.383,20.852,18.509
					c11.246-1.874,12.886-24.132,12.886-24.132v-21.555C392.502,173.202,363.397,165.292,361.081,171.122z"/>
				<path style="fill:#E59255;" d="M392.502,184.193v-10.991c0,0-29.105-7.91-31.422-2.081l-0.51,6.447
					C370.815,182.546,381.879,184.441,392.502,184.193z"/>
				<path style="fill:#EFB856;" d="M440.297,65.898c0,0,11.246,71.693-2.811,90.436c-14.057,18.743-68.413,33.738-99.807-1.874
					c-20.312-23.041-16.4-50.606-3.28-73.098C347.519,58.869,422.96,38.72,440.297,65.898z"/>
				<path style="fill:#5A3A31;" d="M442.172,49.498c0,0-18.743,42.172-42.172,32.801c-6.56-2.812-1.874-6.092,2.811-15.932
					c4.686-9.84,1.426-23.06,7.049-23.997C415.483,41.432,439.36,37.783,442.172,49.498z"/>
				<path style="fill:#5A3A31;" d="M409.371,62.618c0,0-35.612,29.052-41.703,21.086c-6.092-7.966-0.105-24.354,14.46-32.09
					C396.693,43.877,411.245,49.498,409.371,62.618z"/>
				<path style="fill:#EFB856;" d="M334.867,118.379c0,0-0.469-29.052-14.526-28.583c-14.057,0.469-7.497,35.143,2.343,36.549
					C332.524,127.75,334.867,118.379,334.867,118.379z"/>
				<path style="fill:#5A3A31;" d="M334.867,118.379c0,0-0.937,4.217,5.623,4.217c6.56,0,25.772-27.178,27.178-38.892
					c1.406-11.714,13.295-27.66,13.295-27.66s-44.69,5.169-53.593,22.037C318.467,94.95,331.587,88.39,334.867,118.379z"/>
				<g>
					<path style="fill:#E59255;" d="M406.56,131.967c0,0,0.937,4.686,9.372,5.154c8.434,0.469,7.966-7.029,6.56-10.777
						c-1.406-3.749-2.811-14.526-2.811-14.526"/>
					<path style="fill:none;stroke:#5A3A31;stroke-width:2.8347;stroke-linecap:round;stroke-miterlimit:10;" d="M400.468,155.396
						c0,0,3.28-3.749,16.4-4.686"/>
					<path style="fill:#31231E;" d="M394.377,115.333c0,1.941-1.573,3.514-3.514,3.514c-1.941,0-3.514-1.573-3.514-3.514
						s1.573-3.514,3.514-3.514C392.803,111.818,394.377,113.392,394.377,115.333z"/>
					<path style="fill:#31231E;" d="M433.269,115.333c0,1.941-1.573,3.514-3.514,3.514c-1.941,0-3.514-1.573-3.514-3.514
						s1.573-3.514,3.514-3.514C431.695,111.818,433.269,113.392,433.269,115.333z"/>
					<path style="fill:none;stroke:#5A3A31;stroke-width:2.8347;stroke-linecap:round;stroke-miterlimit:10;" d="M382.194,104.79
						c0,0,9.372,1.874,16.869-4.686"/>
					<path style="fill:none;stroke:#5A3A31;stroke-width:2.8347;stroke-linecap:round;stroke-miterlimit:10;" d="M426.24,97.761
						c0,0,3.749,5.623,9.372,4.686"/>
				</g>
				<path style="fill:#E59255;" d="M330.181,114.135c0,0-0.274-17.012-8.506-16.738c-8.232,0.274-4.39,20.58,1.372,21.403
					C328.809,119.623,330.181,114.135,330.181,114.135z"/>
			</g>
			<g>
				<path style="fill:#31231E;" d="M379.144,221.042c0,0-2.812-22.96-24.366-32.332
					C351.498,190.116,347.749,217.294,379.144,221.042z"/>
				<path style="fill:#31231E;" d="M379.144,221.042c0,0,3.28-29.052,17.337-30.926
					C403.979,192.459,402.104,208.859,379.144,221.042z"/>
			</g>
		</g>
		<g style="clip-path:url(#SVGID_00000117658934636190843200000016162702513502515095_);">
			<path style="fill:#84714F;" d="M67.376,278.74c0,0,31.73-105.683,56.191-125.017c11.794-4.668,67.506-15.285,77.65,130.357
				C172.806,291.017,67.376,278.74,67.376,278.74z"/>
			<path style="fill:#EFB856;" d="M217.855,74.84c0,38.12,3.698,55.464-56.08,55.464c-37.269,0-67.173-17.344-67.173-55.464
				s3.081-81.963,67.481-81.963C217.239-7.123,217.855,36.721,217.855,74.84z"/>
			<path style="fill:#5A3A31;" d="M195.053,11.365c0,0-17.255,61.627-41.29,67.173c-1.232-6.779-1.849-14.174-1.849-14.174
				s-28.348,4.314-19.72,25.267c8.628,20.953,20.548,28.941,1.954,36.964c-2.059,5.57-5.652,19.116-13.663,17.884
				c-8.012-1.233,0-14.174,0-14.174s-15.407,12.942-21.569,6.163c-6.163-6.779,9.86-17.872,9.86-17.872s-18.488,11.093-22.186,0
				c-3.698-11.093,13.558-9.86,13.558-9.86S61.94,51.422,103.846-0.96c7.395-4.93,99.219-38.825,114.009,20.337
				c3.081,20.337-0.616,28.964-0.616,28.964S213.541,18.144,200.6,9.516C195.053,11.365,195.053,11.365,195.053,11.365z"/>
			<path style="fill:#5A3A31;" d="M156.229,101.34c0,4.084-1.931,7.395-4.314,7.395c-2.382,0-4.314-3.311-4.314-7.395
				c0-4.084,1.931-7.395,4.314-7.395C154.297,93.945,156.229,97.256,156.229,101.34z"/>
			<path style="fill:#EFB856;" d="M172.149,130.305l-12.223,30.197l8.012,13.558c0,0-41.29,3.081-44.371-20.337
				c1.849-10.477,8.809-27.677,8.809-27.677L172.149,130.305z"/>
			<g>
				<path style="fill:#E59255;" d="M217.096,48.192l16.782,23.567c0,0-2.992,8.628-15.978,8.936
					C217.81,81.928,217.096,48.192,217.096,48.192z"/>
				<path style="fill:none;stroke:#5A3A31;stroke-width:2.8347;stroke-linecap:round;stroke-miterlimit:10;" d="M204.914,100.107
					c0,0,3.698-2.465,9.244-1.849"/>
				<circle style="fill:#31231E;" cx="204.914" cy="55.12" r="3.698"/>
			</g>
			<path style="fill:#E59255;" d="M145.648,75.838c0,0-7.155,4.099-3.655,11.834c3.5,7.735,5.865,4.235,5.865,4.235
				S147.303,80.268,145.648,75.838z"/>
		</g>
		<g style="clip-path:url(#SVGID_00000117658934636190843200000016162702513502515095_);">
			<path style="fill:#E3D888;" d="M-13.373,392.603c0,0-14.266-185.304,52.291-224.862c77.8-46.239,166.061,52.42,166.061,217.2
				C204.978,399.32-13.373,392.603-13.373,392.603z"/>
			<path style="fill:#D88623;" d="M44.291,156.246l4.309,24.008c0,0,28.317,6.771,40.013-19.083
				c-3.693-12.927-8.034-30.883-8.034-30.883L44.291,156.246z"/>
			<path style="fill:#C66822;" d="M80.579,130.287l-36.288,25.959l1.89,10.528c12.096-3.912,25.633-12.385,37.828-22.765
				C82.05,136.374,80.579,130.287,80.579,130.287z"/>
			<g>
				<path style="fill:#D88623;" d="M119.024,77.609c0,28.522-55.648,80.513-87.891,80.513S2.264,106.132,2.264,77.609
					s26.138-51.644,58.38-51.644C92.887,25.965,119.024,49.087,119.024,77.609z"/>
				<g>
					<path style="fill:#C66822;" d="M14.107,75.838c16.133,18.58,7.843,29.861,7.843,29.861s-16.992,3.921-20.88,0.117
						c-3.888-3.804,11.077-30.181,11.077-30.181L14.107,75.838z"/>
					<path style="fill:#31231E;" d="M48.092,75.636c0,2.166-1.756,3.921-3.921,3.921c-2.166,0-3.921-1.756-3.921-3.921
						c0-2.166,1.756-3.921,3.921-3.921C46.337,71.714,48.092,73.47,48.092,75.636z"/>
					<path style="fill:#31231E;" d="M11.493,75.636c0,2.166-1.756,3.921-3.921,3.921s-3.921-1.756-3.921-3.921
						c0-2.166,1.756-3.921,3.921-3.921S11.493,73.47,11.493,75.636z"/>
					<path style="fill:none;stroke:#5A3A31;stroke-width:2.8347;stroke-linecap:round;stroke-miterlimit:10;" d="M40.25,63.218
						c0,0,7.843-5.882,15.685,0"/>
					<path style="fill:none;stroke:#5A3A31;stroke-width:2.8347;stroke-linecap:round;stroke-miterlimit:10;" d="M3.614,63.218
						c0,0,5.919-3.921,10.494,0"/>
					<path style="fill:none;stroke:#5A3A31;stroke-width:2.8347;stroke-linecap:round;stroke-miterlimit:10;" d="M14.107,135.763
						c0,0,7.189-7.843,23.528,0"/>
				</g>
				<path style="fill:#D88623;" d="M96.508,119.218c0,0-5.711,8.111,7.12,11.319c12.831,3.208,32.719-22.454,29.511-32.719
					c-3.208-10.265-16.038-7.699-22.454-1.925C104.269,101.667,96.508,119.218,96.508,119.218z"/>
				<path style="fill:#5A3A31;" d="M84.691,40.344c0,0-26.796-92.805-93.458-73.198C-75.43-13.248,4.597,60.604,4.597,60.604
					s6.896-24.735,39.574-32.628C76.849,20.083,84.691,40.344,84.691,40.344z"/>
				<path style="fill:#84714F;" d="M115.234,95.553l-30.542-55.21L71.076,9.077L95.802-2.138c0,0,42.759,26.731,48.641,66.598
					C141.829,78.838,115.234,95.553,115.234,95.553z"/>
				<path style="fill:#31231E;" d="M102.991,73.675c0,0-6.226,32.616,2.769,36.895c3.612,3.33,9.649-15.328,9.649-15.328
					L102.991,73.675z"/>
				<path style="fill:#31231E;" d="M32.641,28.84L21.95,38.383c0,0,44.603,16.499,60.789-1.378
					C87.007,38.503,63.358,14.924,32.641,28.84z"/>
				<path style="fill:#C66822;" d="M103.104,118.116c0,0-3.88,5.51,4.837,7.689c8.716,2.179,22.227-15.254,20.048-22.227
					c-2.179-6.973-10.896-5.23-15.254-1.308C108.377,106.193,103.104,118.116,103.104,118.116z"/>
			</g>
		</g>
		<g style="clip-path:url(#SVGID_00000117658934636190843200000016162702513502515095_);">
			<polygon style="fill:#CC3E0D;" points="170.602,529.218 173.567,477.283 310.031,477.283 314.132,528.758 			"/>
			<g>
				<path style="fill:#CC3E0D;" d="M307.173,435.27H180.171c-11.462,0-20.753-9.291-20.753-20.753v-95.687
					c0-11.461,9.291-20.753,20.753-20.753h127.003c11.462,0,20.753,9.291,20.753,20.753v95.687
					C327.926,425.979,318.635,435.27,307.173,435.27z"/>
				<path style="fill:#EF680C;" d="M162.4,461.367l18.64-142.412c0,0,107.368-8.202,117.061,0
					c9.693,8.202,26.096,142.412,26.096,142.412H162.4z"/>
				<g>
					<path style="fill:#EF680C;" d="M312.268,327.817l50.702,89.186c0,0,13.421,29.079-2.237,43.246
						c-15.658,14.167-30.57,12.675-30.57,12.675l-19.013-62.089L312.268,327.817z"/>
				</g>
				<path style="fill:#EF680C;" d="M169.483,327.817l-50.702,89.186c0,0-13.421,29.079,2.237,43.246
					c15.658,14.167,30.57,12.675,30.57,12.675l19.013-62.089L169.483,327.817z"/>
				<path style="fill:#E20000;" d="M285.64,311.682c0,0,5.378,96.373,1.65,126.943c3.728-0.746,15.658-2.982,15.658-2.982
					s24.605-70.833,7.456-123.772C302.202,307.398,285.64,311.682,285.64,311.682z"/>
				<path style="fill:#E20000;" d="M196.436,311.682c0,0-5.378,96.373-1.65,126.943c-3.728-0.746-15.658-2.982-15.658-2.982
					s-24.605-70.833-7.456-123.772C179.873,307.398,196.436,311.682,196.436,311.682z"/>
				<path style="fill:#EF680C;" d="M144.878,418.494l55.175,3.728c0,0-11.93,56.667-22.368,56.667
					c-3.728-0.746-49.014-12.82-49.014-12.82S138.913,423.713,144.878,418.494z"/>
				<path style="fill:#EF680C;" d="M336.873,418.494l-55.175,3.728c0,0,11.93,56.667,22.368,56.667
					c3.728-0.746,49.014-12.82,49.014-12.82S342.838,423.713,336.873,418.494z"/>
				<path style="fill:#EF680C;" d="M296.983,416.257h-51.447h-7.456h-51.447l-17.149,67.851c0,0,53.984,7.829,72.324,7.829
					c18.341,0,72.324-7.829,72.324-7.829L296.983,416.257z"/>
				<path style="fill:#CC3E0D;" d="M165.596,334.655h29.748l-1.446,40.026l-27.771,0.195
					C166.128,374.876,164.319,361.539,165.596,334.655z"/>
				
					<path style="fill:none;stroke:#8E002C;stroke-width:2.1135;stroke-linecap:round;stroke-linejoin:round;stroke-miterlimit:10;" d="
					M131.457,408.801c0,0,29.824-0.746,35.789,11.184"/>
				
					<path style="fill:none;stroke:#8E002C;stroke-width:2.1135;stroke-linecap:round;stroke-linejoin:round;stroke-miterlimit:10;" d="
					M171.208,477.283l14.167-56.052c0,0-46.835-4.6-58.765-3.109"/>
				<g>
					
						<path style="fill:none;stroke:#8E002C;stroke-width:2.1135;stroke-linecap:round;stroke-linejoin:round;stroke-miterlimit:10;" d="
						M353.511,408.801c0,0-29.825-0.746-35.789,11.184"/>
					
						<path style="fill:none;stroke:#8E002C;stroke-width:2.1135;stroke-linecap:round;stroke-linejoin:round;stroke-miterlimit:10;" d="
						M313.76,477.283l-14.167-56.052c0,0,46.835-4.6,58.765-3.109"/>
				</g>
				
					<line style="fill:none;stroke:#8E002C;stroke-width:2.1135;stroke-linecap:round;stroke-linejoin:round;stroke-miterlimit:10;" x1="193.566" y1="416.257" x2="288.781" y2="416.257"/>
				
					<path style="fill:none;stroke:#8E002C;stroke-width:2.1135;stroke-linecap:round;stroke-linejoin:round;stroke-miterlimit:10;" d="
					M230.624,330.512c0,0-9.693,23.114-8.947,54.43"/>
				
					<path style="fill:none;stroke:#8E002C;stroke-width:2.1135;stroke-linecap:round;stroke-linejoin:round;stroke-miterlimit:10;" d="
					M253.697,330.512c0,0,9.693,23.114,8.947,54.43"/>
			</g>
			<g>
				<ellipse style="fill:#EF680C;" cx="240.317" cy="276.828" rx="69.715" ry="56.667"/>
				<ellipse style="fill:#CC3E0D;" cx="240.317" cy="272.354" rx="62.631" ry="41.754"/>
			</g>
			<g>
				<path style="fill:#F7931E;" d="M254.856,294.722c0-7.412-6.009-13.421-13.421-13.421c-7.412,0-13.421,6.009-13.421,13.421v5.965
					c0,2.929-0.224,7.794-0.04,12.606c3.991,0.532,8.117,0.815,12.343,0.815c5.026,0,9.908-0.406,14.592-1.151
					c0.161-4.702-0.052-9.409-0.052-12.27V294.722z"/>
				<path style="fill:#E56E1F;" d="M241.435,281.301c-7.412,0-13.421,0.417-13.421,7.829v10.445
					c4.465,0.97,9.075,1.484,13.794,1.484c4.456,0,8.816-0.457,13.048-1.324v-8.368
					C254.856,283.955,248.847,281.301,241.435,281.301z"/>
			</g>
			<g>
				<ellipse style="fill:#F7931E;" cx="241.435" cy="211.214" rx="71.952" ry="80.526"/>
				<g>
					
						<ellipse transform="matrix(0.8995 -0.4369 0.4369 0.8995 -76.1786 89.4108)" style="fill:#F7931E;" cx="156.285" cy="210.314" rx="21.318" ry="23.858"/>
					<circle style="fill:#E20000;" cx="159.045" cy="233.62" r="6.711"/>
					<g>
						<path style="fill:#E56E1F;" d="M168.425,205.631c3.644,7.504,1.164,16.227-5.541,19.483
							c-6.705,3.257-15.095-0.187-18.739-7.691c-3.645-7.504-1.164-16.227,5.541-19.483
							C156.39,194.684,164.78,198.127,168.425,205.631z"/>
					</g>
				</g>
				<g>
					
						<ellipse transform="matrix(0.4369 -0.8995 0.8995 0.4369 -4.6047 413.2715)" style="fill:#F7931E;" cx="327.776" cy="210.314" rx="23.858" ry="21.318"/>
					<circle style="fill:#E20000;" cx="325.016" cy="233.62" r="6.71"/>
					<g>
						<path style="fill:#E56E1F;" d="M315.635,205.631c-3.645,7.504-1.164,16.227,5.541,19.483
							c6.705,3.257,15.095-0.187,18.739-7.691c3.645-7.504,1.164-16.227-5.541-19.483
							C327.67,194.684,319.28,198.127,315.635,205.631z"/>
					</g>
				</g>
				<path style="fill:#E20000;" d="M240.319,130.688c3.728,46.228,68.594,56.667,68.594,56.667S308.916,124.723,240.319,130.688z"/>
				<path style="fill:#E20000;" d="M241.435,130.688c-3.728,46.228-68.221,56.667-68.221,56.667S172.839,124.723,241.435,130.688z"
					/>
				<g>
					
						<ellipse transform="matrix(0.7071 -0.7071 0.7071 0.7071 -12.4555 245.5084)" style="fill:#E20000;" cx="290.127" cy="137.789" rx="39.517" ry="39.517"/>
					<g>
						
							<path style="fill:none;stroke:#8E002C;stroke-width:2.1135;stroke-linecap:round;stroke-linejoin:round;stroke-miterlimit:10;" d="
							M275.362,134.38c0,0,6.668-23.393,36.513-28.082c0,0-38.751-8.406-47.326,25.141"/>
						
							<path style="fill:none;stroke:#8E002C;stroke-width:2.1135;stroke-linecap:round;stroke-linejoin:round;stroke-miterlimit:10;" d="
							M298.178,150.23c0,0,19.852-14.057,14.366-43.766c0,0,20.796,33.762-8.001,52.989"/>
						
							<line style="fill:none;stroke:#8E002C;stroke-width:2.1135;stroke-linecap:round;stroke-miterlimit:10;" x1="288.781" y1="141.872" x2="311.895" y2="107.574"/>
					</g>
				</g>
				<g>
					
						<ellipse transform="matrix(0.7071 -0.7071 0.7071 0.7071 -41.3238 176.0143)" style="fill:#E20000;" cx="191.806" cy="137.889" rx="39.517" ry="39.517"/>
					<g>
						
							<path style="fill:none;stroke:#8E002C;stroke-width:2.1135;stroke-linecap:round;stroke-linejoin:round;stroke-miterlimit:10;" d="
							M209.483,133.09c0,0-5.607-23.67-35.21-29.7c0,0,39.091-6.65,46.145,27.249"/>
						
							<path style="fill:none;stroke:#8E002C;stroke-width:2.1135;stroke-linecap:round;stroke-linejoin:round;stroke-miterlimit:10;" d="
							M185.975,147.896c0,0-19.198-14.938-12.378-44.369c0,0-22.296,32.79,5.604,53.296"/>
						
							<line style="fill:none;stroke:#8E002C;stroke-width:2.1135;stroke-linecap:round;stroke-miterlimit:10;" x1="195.739" y1="139.97" x2="174.195" y2="104.664"/>
					</g>
				</g>
				<g>
					<path style="fill:#31231E;" d="M261.567,230.813c0,11.118-9.013,20.132-20.132,20.132c-11.118,0-20.132-9.013-20.132-20.132
						H261.567z"/>
					<circle style="fill:#31231E;" cx="222.049" cy="208.604" r="3.728"/>
					<path style="fill:#31231E;" d="M257.093,208.604c0-2.059,1.669-3.728,3.728-3.728c2.059,0,3.728,1.669,3.728,3.728
						s-1.669,3.728-3.728,3.728C258.762,212.332,257.093,210.663,257.093,208.604z"/>
					<ellipse style="fill:#E56E1F;" cx="277.232" cy="223.889" rx="17.149" ry="8.575"/>
					<ellipse style="fill:#E56E1F;" cx="208.628" cy="223.889" rx="17.149" ry="8.575"/>
					<path style="fill:#E20000;" d="M241.435,238.482c-5.722,0-10.874,2.398-14.54,6.231c3.665,3.833,8.818,6.231,14.54,6.231
						c5.722,0,10.874-2.398,14.539-6.231C252.309,240.88,247.157,238.482,241.435,238.482z"/>
					
						<path style="fill:none;stroke:#8E002C;stroke-width:2.1135;stroke-linecap:round;stroke-linejoin:round;stroke-miterlimit:10;" d="
						M256.235,195.093c1.309-0.884,2.887-1.401,4.586-1.401c4.53,0,8.202,3.672,8.202,8.202"/>
					
						<path style="fill:none;stroke:#8E002C;stroke-width:2.1135;stroke-linecap:round;stroke-linejoin:round;stroke-miterlimit:10;" d="
						M228.443,195.093c-1.309-0.884-2.887-1.401-4.586-1.401c-4.53,0-8.202,3.672-8.202,8.202"/>
					<path style="fill:#DD5E17;" d="M238.453,197.42l-3.728,24.232c0,1.853,5.23,3.355,7.083,3.355c1.853,0,7.083-1.502,7.083-3.355
						l-3.728-24.232H238.453z"/>
					<path style="fill:#EFEFC7;" d="M221.76,235.055c0,0,3.313,0.58,7.695,1.06c0.443,0.048,0.817-2.383,1.28-2.337
						c0.454,0.045,0.997,2.567,1.466,2.608c2.643,0.231,5.481,0.388,8.118,0.351c10.873-0.15,20.791-1.682,20.791-1.682
						c0.294-1.369,0.457-2.786,0.457-4.242h-40.263C221.303,232.269,221.466,233.686,221.76,235.055z"/>
				</g>
				<path style="fill:#E20000;" d="M180.659,184.423c-0.33,1.699-1.633,8.229-3.396,14.624c-0.966,3.504-6.177,2.675-6.004-0.955
					c0.32-6.712,1.93-19.927,4.308-23.538c4.403-6.686,4.919,6.94,5.131,8.978C180.73,183.833,180.717,184.127,180.659,184.423z"/>
				<path style="fill:#E20000;" d="M302.094,184.423c0.33,1.699,1.633,8.229,3.396,14.624c0.966,3.504,6.177,2.675,6.004-0.955
					c-0.32-6.712-1.324-14.025-3.702-17.635c-4.403-6.686-5.525,1.038-5.737,3.075C302.023,183.833,302.036,184.127,302.094,184.423
					z"/>
				
					<path style="fill:none;stroke:#8E002C;stroke-width:2.1135;stroke-linecap:round;stroke-linejoin:round;stroke-miterlimit:10;" d="
					M307.259,173.424c-3.757-16.79-15.999-42.817-55.787-43.134"/>
				
					<path style="fill:none;stroke:#8E002C;stroke-width:2.1135;stroke-linecap:round;stroke-linejoin:round;stroke-miterlimit:10;" d="
					M174.832,173.585c3.713-16.775,15.895-42.948,55.759-43.294"/>
			</g>
		</g>
		<g style="clip-path:url(#SVGID_00000117658934636190843200000016162702513502515095_);">
			<path style="fill:#84714F;" d="M-16.774,515.044c0,0,4.134-125.268,36.525-152.195c32.391-26.927,42.709,33.887,42.709,33.887
				l-28.756,112.78L-16.774,515.044z"/>
			<path style="fill:#84714F;" d="M-3.813,535.891c0,0,6.881-119.045,41.799-169.847c3.698-5.38,7.711-9.996,12.063-13.623
				c45.446-37.872,82.477-9.258,100.151,31.981s30.298,151.488,30.298,151.488H-3.813z"/>
			<path style="fill:none;stroke:#5A3A31;stroke-width:2.8347;stroke-linecap:round;stroke-miterlimit:10;" d="M135.35,535.891
				c0,0-34.65-93.975-14.459-188.646"/>
			<path style="fill:none;stroke:#5A3A31;stroke-width:2.8347;stroke-linecap:round;stroke-miterlimit:10;" d="M-3.813,535.891
				c0,0,6.881-119.045,41.799-169.847c3.698-5.38,7.711-9.996,12.063-13.623"/>
			<path style="fill:#E56E1F;" d="M54.405,363.349c0,0,9.11,23.579,20.05,23.579c10.941,0,33.069-40.189,33.069-40.189
				S55.247,355.134,54.405,363.349z"/>
			<g>
				<path style="fill:#F47A21;" d="M127.029,270.816c8.216,42.439-14.242,87.651-52.574,95.072
					c-38.332,7.421-78.022-25.76-86.238-68.199s16.198-82.858,54.53-90.279C81.079,199.989,118.813,228.377,127.029,270.816z"/>
				<g>
					<path style="fill:none;stroke:#5A3A31;stroke-width:2.8347;stroke-linecap:round;stroke-miterlimit:10;" d="M57.623,349.897
						c0,0,5.05-8.416,16.832-10.099"/>
					<path style="fill:#C66822;" d="M41.797,315.884c-5.327-2.195-8.664,2.287-8.011,8.011c0.81,7.107,4.063,18.577,7.006,19.269
						c3.674,0.863,8.003-3.138,11.351-7.243c3.495-4.286,2.873-10.599-1.398-14.113C47.846,319.425,44.521,317.007,41.797,315.884z"
						/>
					<circle style="fill:#31231E;" cx="70.668" cy="307.396" r="3.787"/>
					<path style="fill:#31231E;" d="M12.177,317.496c0-2.092,1.696-3.787,3.787-3.787c2.092,0,3.787,1.696,3.787,3.787
						c0,2.092-1.696,3.787-3.787,3.787C13.873,321.283,12.177,319.587,12.177,317.496z"/>
					<path style="fill:none;stroke:#5A3A31;stroke-width:2.8347;stroke-linecap:round;stroke-miterlimit:10;" d="M54.405,285.193
						c0,0,15.001-4.307,25.942-0.94"/>
					<path style="fill:none;stroke:#5A3A31;stroke-width:2.8347;stroke-linecap:round;stroke-miterlimit:10;" d="M0.394,303.609
						c0,0,10.099-12.128,19.357-11.286"/>
				</g>
				<path style="fill:#5A3A31;" d="M89.604,234.598c0,0-42.922,63.12-129.607,31.981c-21.882-12.624-14.307-29.456-14.307-29.456
					s19.852,0.105,36.857,5.944c-6.387-22.828,2.752-44.657,13.245-50.548c10.493-5.891,10.493,25.248,10.493,25.248
					s34.506-47.13,83.319-17.674C104.753,208.508,89.604,234.598,89.604,234.598z"/>
				<path style="fill:#F47A21;" d="M128.717,275.211c0,0,8.017-31.356,27.374-27.148c19.357,4.208-0.043,64.636-27.374,53.779
					C124.552,299.485,128.717,275.211,128.717,275.211z"/>
				<path style="fill:#5A3A31;" d="M96.337,204.3c0,0-17.333,48.076,30.889,82.529c2.184-0.946,13.716-23.617,7.825-45.499
					S96.337,204.3,96.337,204.3z"/>
				<path style="fill:#5A3A31;" d="M101.387,213.558c0,0,0-28.615,26.931-31.139C135.892,202.617,101.387,213.558,101.387,213.558z"
					/>
				<path style="fill:#5A3A31;" d="M96.676,211.319c0,0-17.618-26.019,5.381-40.257C114.46,177.118,102.717,204.561,96.676,211.319z
					"/>
				<path style="fill:#C66822;" d="M133.794,275.272c0,0,5.575-21.807,19.037-18.88c13.462,2.927-0.03,44.952-19.037,37.401
					C130.898,292.153,133.794,275.272,133.794,275.272z"/>
			</g>
		</g>
		<g style="clip-path:url(#SVGID_00000117658934636190843200000016162702513502515095_);">
			<path style="fill:#5A3A31;" d="M280.341,519.357c0,0,19.341-126.46,121.997-171.837s159.191,72.156,171.093,169.605
				C568.223,517.126,280.341,519.357,280.341,519.357z"/>
			<path style="fill:#D88623;" d="M450.67,360.799c0,0,2.975,8.815,18.607,0c4.483-4.241,18.75-41.411,18.75-41.411l-52.667,8.429
				L450.67,360.799z"/>
			<polygon style="fill:#84714F;" points="471.443,334.566 473.75,371.325 492.703,351.555 488.027,321.388 			"/>
			<g>
				<g>
					<path style="fill:#D88623;" d="M399.362,251.56c0,0-34.219-12.646-31.987,14.134c2.232,26.78,27.524,28.267,42.401,17.109
						C409.776,282.059,399.362,251.56,399.362,251.56z"/>
					<path style="fill:#C66822;" d="M393.383,256.535c0,0-19.684-9.922-20.168,6.308c-0.483,16.231,14.601,18.846,24.293,13.159
						C397.559,275.556,393.383,256.535,393.383,256.535z"/>
				</g>
				<polygon style="fill:#84714F;" points="408.382,308.021 402.337,347.521 443.251,380.995 456.641,344.545 				"/>
				<path style="fill:#D88623;" d="M384.484,202.464c0,0,11.158-32.731,56.535-43.145c45.377-10.414,75.132,39.426,82.571,76.62
					c7.439,37.194,0,70.669-46.865,73.644C429.861,312.558,388.204,280.571,384.484,202.464z"/>
				<path style="fill:#D6C580;" d="M404.569,241.889l16.365,35.706c0,0,17.853,28.267,35.706,17.109
					c17.853-11.158,26.036-16.365,26.036-16.365l20.085-2.232c0,0,5.951,8.927,13.39,8.183c7.439-0.744,4.091-17.513,4.091-17.513
					l-1.801-49.064c0,0,31.184,28.639,16.307,77.736c-14.878,49.096-50.869,39.476-50.869,39.476l0.915-7.32l-5.184,5.889
					c0,0-87.687,19.977-83.967-89.373C394.155,240.402,404.569,241.889,404.569,241.889z"/>
				<path style="fill:#D6C580;" d="M380.021,246.353c0,0-17.853-2.232-10.414-29.011c2.79-10.042,8.508-14.959,14.567-17.182
					c12.757-4.68,26.622,3.281,29.966,16.451c2.513,9.896,0.465,22.402-18.601,31.966c-6.487,0.76-18.493,0.008-18.493,0.008
					L380.021,246.353z"/>
				<g>
					<path style="fill:#D6C580;" d="M467.055,247.096c0,0-29.755,8.183-29.755,35.706c2.232,2.232,37.938,4.463,46.121-19.341
						C484.908,259.742,490.859,244.121,467.055,247.096z"/>
					<path style="fill:#D6C580;" d="M534.748,263.462c0,0-38.049,7.459-46.864,0c-9.671-8.183-6.695-21.573,11.158-21.573
						C516.895,241.889,534.748,263.462,534.748,263.462z"/>
					<path style="fill:#C66822;" d="M473.75,207.671c0,0,16.365,15.621,20.085,28.267c3.719,12.646-11.158,10.414-11.158,10.414
						S474.14,248.786,473.75,207.671z"/>
					<path style="fill:#31231E;" d="M456.641,217.713c0,2.26-1.832,4.091-4.091,4.091c-2.26,0-4.091-1.832-4.091-4.091
						s1.832-4.091,4.091-4.091C454.809,213.622,456.641,215.454,456.641,217.713z"/>
					<path style="fill:#31231E;" d="M493.835,207.299c0,2.26-1.832,4.091-4.091,4.091c-2.26,0-4.091-1.832-4.091-4.091
						s1.832-4.091,4.091-4.091C492.003,203.208,493.835,205.039,493.835,207.299z"/>
					<path style="fill:#D6C580;" d="M441.84,211.214c0,0,2.187-7.988,21.187-6.907c2.333,0.081-1.79-12.431-1.79-12.431
						S440.654,189.039,441.84,211.214z"/>
					<path style="fill:#D6C580;" d="M500.969,201.809c0,0-4.041-7.229-22.225-1.618c-2.246,0.639-1.247-12.497-1.247-12.497
						S496.796,179.998,500.969,201.809z"/>
				</g>
			</g>
		</g>
	</g>
</g>
</svg>
